<svg width="176" height="64" viewBox="0 0 176 64" fill="none" xmlns="http://www.w3.org/2000/svg">
<rect x="0.5" y="0.5" width="175" height="63" rx="7.5" stroke="white"/>
<path d="M56.91 17.225H59.211C60.6497 17.225 61.772 17.6107 62.578 18.382C63.384 19.1533 63.787 20.2237 63.787 21.593C63.787 22.5203 63.5963 23.3177 63.215 23.985C62.8337 24.6437 62.2877 25.1463 61.577 25.493C60.8663 25.831 60.0257 26 59.055 26H56.91V17.225ZM58.08 18.226V24.999H59.133C60.2337 24.999 61.083 24.7087 61.681 24.128C62.279 23.5387 62.578 22.7023 62.578 21.619C62.578 20.527 62.2833 19.6907 61.694 19.11C61.1133 18.5207 60.2857 18.226 59.211 18.226H58.08ZM67.8756 26.169C67.2603 26.169 66.7229 26.0173 66.2636 25.714C65.8043 25.4107 65.4489 24.9947 65.1976 24.466C64.9549 23.9373 64.8336 23.335 64.8336 22.659C64.8336 21.9483 64.9636 21.3287 65.2236 20.8C65.4923 20.2627 65.8563 19.851 66.3156 19.565C66.7749 19.279 67.2993 19.136 67.8886 19.136C68.5039 19.136 69.0413 19.2877 69.5006 19.591C69.9599 19.8943 70.3109 20.3103 70.5536 20.839C70.8049 21.3677 70.9306 21.97 70.9306 22.646C70.9306 23.3567 70.7963 23.9807 70.5276 24.518C70.2676 25.0467 69.9079 25.454 69.4486 25.74C68.9893 26.026 68.4649 26.169 67.8756 26.169ZM67.8886 25.207C68.4693 25.207 68.9286 24.9773 69.2666 24.518C69.6046 24.0587 69.7736 23.439 69.7736 22.659C69.7736 21.879 69.6003 21.2593 69.2536 20.8C68.9156 20.332 68.4563 20.098 67.8756 20.098C67.2949 20.098 66.8356 20.3277 66.4976 20.787C66.1596 21.2463 65.9906 21.866 65.9906 22.646C65.9906 23.426 66.1596 24.05 66.4976 24.518C66.8443 24.9773 67.3079 25.207 67.8886 25.207ZM71.4034 19.305H72.5734L73.8604 24.622L75.2514 19.565H76.3304L77.7084 24.622L78.9954 19.305H80.1394L78.3064 26H77.1494L75.7584 20.943L74.3934 26H73.2494L71.4034 19.305ZM81.1305 19.305H82.1315L82.1965 20.228C82.4219 19.8727 82.7079 19.604 83.0545 19.422C83.4099 19.2313 83.8085 19.136 84.2505 19.136C84.9612 19.136 85.5245 19.3787 85.9405 19.864C86.3565 20.3407 86.5645 20.9863 86.5645 21.801V26H85.4205V21.97C85.4205 21.3807 85.2862 20.9257 85.0175 20.605C84.7575 20.2757 84.3892 20.111 83.9125 20.111C83.4272 20.111 83.0329 20.2843 82.7295 20.631C82.4262 20.969 82.2745 21.4153 82.2745 21.97V26H81.1305V19.305ZM88.151 16.315H89.295V26H88.151V16.315ZM93.5963 26.169C92.981 26.169 92.4436 26.0173 91.9843 25.714C91.525 25.4107 91.1696 24.9947 90.9183 24.466C90.6756 23.9373 90.5543 23.335 90.5543 22.659C90.5543 21.9483 90.6843 21.3287 90.9443 20.8C91.213 20.2627 91.577 19.851 92.0363 19.565C92.4956 19.279 93.02 19.136 93.6093 19.136C94.2246 19.136 94.762 19.2877 95.2213 19.591C95.6806 19.8943 96.0316 20.3103 96.2743 20.839C96.5256 21.3677 96.6513 21.97 96.6513 22.646C96.6513 23.3567 96.517 23.9807 96.2483 24.518C95.9883 25.0467 95.6286 25.454 95.1693 25.74C94.71 26.026 94.1856 26.169 93.5963 26.169ZM93.6093 25.207C94.19 25.207 94.6493 24.9773 94.9873 24.518C95.3253 24.0587 95.4943 23.439 95.4943 22.659C95.4943 21.879 95.321 21.2593 94.9743 20.8C94.6363 20.332 94.177 20.098 93.5963 20.098C93.0156 20.098 92.5563 20.3277 92.2183 20.787C91.8803 21.2463 91.7113 21.866 91.7113 22.646C91.7113 23.426 91.8803 24.05 92.2183 24.518C92.565 24.9773 93.0286 25.207 93.6093 25.207ZM99.7467 26.169C99.0967 26.169 98.5767 25.9913 98.1867 25.636C97.8054 25.2807 97.6147 24.8127 97.6147 24.232C97.6147 23.4867 97.9181 22.9147 98.5247 22.516C99.1401 22.1087 100.024 21.905 101.177 21.905C101.272 21.905 101.363 21.905 101.45 21.905C101.545 21.905 101.64 21.9093 101.736 21.918C101.727 21.294 101.588 20.8347 101.32 20.54C101.051 20.2453 100.639 20.098 100.085 20.098C99.4174 20.098 98.7761 20.2887 98.1607 20.67V19.708C98.8194 19.3267 99.5084 19.136 100.228 19.136C101.068 19.136 101.714 19.3787 102.165 19.864C102.624 20.3407 102.854 21.0253 102.854 21.918V26H101.879L101.814 25.116C101.606 25.4453 101.315 25.7053 100.943 25.896C100.579 26.078 100.18 26.169 99.7467 26.169ZM100.007 25.298C100.327 25.298 100.622 25.2157 100.891 25.051C101.159 24.8863 101.367 24.674 101.515 24.414C101.662 24.154 101.736 23.8723 101.736 23.569V22.763C101.632 22.7543 101.528 22.75 101.424 22.75C101.328 22.75 101.233 22.75 101.138 22.75C100.349 22.75 99.7467 22.867 99.3307 23.101C98.9234 23.335 98.7197 23.673 98.7197 24.115C98.7197 24.4703 98.8367 24.7563 99.0707 24.973C99.3134 25.1897 99.6254 25.298 100.007 25.298ZM106.779 26.169C106.224 26.169 105.739 26.0217 105.323 25.727C104.916 25.4237 104.604 25.012 104.387 24.492C104.17 23.9633 104.062 23.361 104.062 22.685C104.062 21.957 104.179 21.3243 104.413 20.787C104.656 20.2497 104.985 19.8423 105.401 19.565C105.826 19.279 106.311 19.136 106.857 19.136C107.273 19.136 107.65 19.2313 107.988 19.422C108.326 19.604 108.608 19.8727 108.833 20.228V16.315H109.977V26H108.976L108.898 24.934C108.699 25.3153 108.408 25.6187 108.027 25.844C107.654 26.0607 107.238 26.169 106.779 26.169ZM107.065 25.207C107.611 25.207 108.049 24.9773 108.378 24.518C108.707 24.0587 108.872 23.4433 108.872 22.672C108.872 21.892 108.707 21.268 108.378 20.8C108.049 20.332 107.611 20.098 107.065 20.098C106.493 20.098 106.042 20.3277 105.713 20.787C105.384 21.2463 105.219 21.8703 105.219 22.659C105.219 23.4477 105.384 24.0717 105.713 24.531C106.042 24.9817 106.493 25.207 107.065 25.207ZM113.171 19.305H114.393L116.213 24.765L118.033 19.305H119.216L116.759 26H115.641L113.171 19.305ZM120.207 19.305H121.351V26H120.207V19.305ZM120.779 18.018C120.562 18.018 120.38 17.9487 120.233 17.81C120.094 17.6627 120.025 17.485 120.025 17.277C120.025 17.069 120.094 16.8957 120.233 16.757C120.38 16.6097 120.562 16.536 120.779 16.536C120.995 16.536 121.173 16.6097 121.312 16.757C121.459 16.8957 121.533 17.069 121.533 17.277C121.533 17.485 121.459 17.6627 121.312 17.81C121.173 17.9487 120.995 18.018 120.779 18.018ZM124.82 26.169C124.17 26.169 123.65 25.9913 123.26 25.636C122.879 25.2807 122.688 24.8127 122.688 24.232C122.688 23.4867 122.991 22.9147 123.598 22.516C124.213 22.1087 125.097 21.905 126.25 21.905C126.345 21.905 126.436 21.905 126.523 21.905C126.618 21.905 126.714 21.9093 126.809 21.918C126.8 21.294 126.662 20.8347 126.393 20.54C126.124 20.2453 125.713 20.098 125.158 20.098C124.491 20.098 123.849 20.2887 123.234 20.67V19.708C123.893 19.3267 124.582 19.136 125.301 19.136C126.142 19.136 126.787 19.3787 127.238 19.864C127.697 20.3407 127.927 21.0253 127.927 21.918V26H126.952L126.887 25.116C126.679 25.4453 126.389 25.7053 126.016 25.896C125.652 26.078 125.253 26.169 124.82 26.169ZM125.08 25.298C125.401 25.298 125.695 25.2157 125.964 25.051C126.233 24.8863 126.441 24.674 126.588 24.414C126.735 24.154 126.809 23.8723 126.809 23.569V22.763C126.705 22.7543 126.601 22.75 126.497 22.75C126.402 22.75 126.306 22.75 126.211 22.75C125.422 22.75 124.82 22.867 124.404 23.101C123.997 23.335 123.793 23.673 123.793 24.115C123.793 24.4703 123.91 24.7563 124.144 24.973C124.387 25.1897 124.699 25.298 125.08 25.298Z" fill="white"/>
<path d="M62.714 47.234C61.478 47.234 60.398 46.97 59.474 46.442C58.55 45.914 57.842 45.182 57.35 44.246C56.858 43.31 56.612 42.236 56.612 41.024C56.612 39.728 56.882 38.594 57.422 37.622C57.962 36.65 58.706 35.906 59.654 35.39C60.602 34.874 61.688 34.616 62.912 34.616C63.488 34.616 64.046 34.682 64.586 34.814C65.126 34.946 65.606 35.132 66.026 35.372V37.478C65.594 37.202 65.114 36.986 64.586 36.83C64.07 36.674 63.56 36.596 63.056 36.596C61.772 36.596 60.764 36.986 60.032 37.766C59.3 38.534 58.934 39.584 58.934 40.916C58.934 42.284 59.288 43.352 59.996 44.12C60.704 44.888 61.688 45.272 62.948 45.272C63.464 45.272 63.926 45.212 64.334 45.092V42.302H61.904V40.412H66.494V46.424C65.438 46.964 64.178 47.234 62.714 47.234ZM72.5696 47.234C71.6696 47.234 70.8836 47.03 70.2116 46.622C69.5516 46.202 69.0416 45.626 68.6816 44.894C68.3336 44.15 68.1596 43.298 68.1596 42.338C68.1596 41.342 68.3456 40.472 68.7176 39.728C69.1016 38.984 69.6236 38.414 70.2836 38.018C70.9556 37.622 71.7176 37.424 72.5696 37.424C73.4696 37.424 74.2496 37.634 74.9096 38.054C75.5816 38.462 76.0916 39.038 76.4396 39.782C76.7996 40.514 76.9796 41.36 76.9796 42.32C76.9796 43.316 76.7876 44.186 76.4036 44.93C76.0316 45.674 75.5096 46.244 74.8376 46.64C74.1776 47.036 73.4216 47.234 72.5696 47.234ZM72.5696 45.398C73.2416 45.398 73.7696 45.128 74.1536 44.588C74.5376 44.048 74.7296 43.298 74.7296 42.338C74.7296 41.39 74.5376 40.64 74.1536 40.088C73.7696 39.536 73.2416 39.26 72.5696 39.26C71.8976 39.26 71.3696 39.53 70.9856 40.07C70.6016 40.61 70.4096 41.36 70.4096 42.32C70.4096 43.268 70.6016 44.018 70.9856 44.57C71.3696 45.122 71.8976 45.398 72.5696 45.398ZM82.5012 47.234C81.6012 47.234 80.8152 47.03 80.1432 46.622C79.4832 46.202 78.9732 45.626 78.6132 44.894C78.2652 44.15 78.0912 43.298 78.0912 42.338C78.0912 41.342 78.2772 40.472 78.6492 39.728C79.0332 38.984 79.5552 38.414 80.2152 38.018C80.8872 37.622 81.6492 37.424 82.5012 37.424C83.4012 37.424 84.1812 37.634 84.8412 38.054C85.5132 38.462 86.0232 39.038 86.3712 39.782C86.7312 40.514 86.9112 41.36 86.9112 42.32C86.9112 43.316 86.7192 44.186 86.3352 44.93C85.9632 45.674 85.4412 46.244 84.7692 46.64C84.1092 47.036 83.3532 47.234 82.5012 47.234ZM82.5012 45.398C83.1732 45.398 83.7012 45.128 84.0852 44.588C84.4692 44.048 84.6612 43.298 84.6612 42.338C84.6612 41.39 84.4692 40.64 84.0852 40.088C83.7012 39.536 83.1732 39.26 82.5012 39.26C81.8292 39.26 81.3012 39.53 80.9172 40.07C80.5332 40.61 80.3412 41.36 80.3412 42.32C80.3412 43.268 80.5332 44.018 80.9172 44.57C81.3012 45.122 81.8292 45.398 82.5012 45.398ZM92.0008 50.654C91.4368 50.654 90.8908 50.594 90.3628 50.474C89.8468 50.354 89.3848 50.18 88.9768 49.952V48.08C89.8288 48.572 90.7588 48.818 91.7668 48.818C93.5668 48.818 94.4668 47.894 94.4668 46.046V45.65C94.1548 46.07 93.7708 46.394 93.3148 46.622C92.8588 46.838 92.3608 46.946 91.8208 46.946C90.6808 46.946 89.7628 46.526 89.0668 45.686C88.3708 44.834 88.0228 43.706 88.0228 42.302C88.0228 40.814 88.3828 39.632 89.1028 38.756C89.8228 37.868 90.7828 37.424 91.9828 37.424C92.5708 37.424 93.0928 37.55 93.5488 37.802C94.0048 38.042 94.3828 38.39 94.6828 38.846L94.8088 37.658H96.6988V45.83C96.6988 47.39 96.2908 48.584 95.4748 49.412C94.6708 50.24 93.5128 50.654 92.0008 50.654ZM92.4328 45.2C93.0688 45.2 93.5728 44.936 93.9448 44.408C94.3288 43.868 94.5208 43.154 94.5208 42.266C94.5208 41.354 94.3288 40.628 93.9448 40.088C93.5608 39.536 93.0508 39.26 92.4148 39.26C91.7548 39.26 91.2328 39.53 90.8488 40.07C90.4648 40.598 90.2728 41.324 90.2728 42.248C90.2728 43.148 90.4648 43.868 90.8488 44.408C91.2448 44.936 91.7728 45.2 92.4328 45.2ZM98.7209 33.59H100.953V47H98.7209V33.59ZM107.205 47.234C105.741 47.234 104.595 46.796 103.767 45.92C102.939 45.044 102.525 43.838 102.525 42.302C102.525 41.318 102.705 40.46 103.065 39.728C103.437 38.984 103.947 38.414 104.595 38.018C105.243 37.622 105.981 37.424 106.809 37.424C108.021 37.424 108.975 37.832 109.671 38.648C110.367 39.464 110.715 40.592 110.715 42.032V43.04H104.667C104.787 43.832 105.087 44.432 105.567 44.84C106.047 45.248 106.689 45.452 107.493 45.452C108.381 45.452 109.263 45.224 110.139 44.768V46.55C109.299 47.006 108.321 47.234 107.205 47.234ZM106.719 39.134C106.131 39.134 105.657 39.338 105.297 39.746C104.949 40.142 104.733 40.724 104.649 41.492H108.645C108.621 40.748 108.441 40.172 108.105 39.764C107.769 39.344 107.307 39.134 106.719 39.134ZM115.441 34.85H119.077C120.577 34.85 121.753 35.192 122.605 35.876C123.469 36.56 123.901 37.49 123.901 38.666C123.901 39.926 123.463 40.91 122.587 41.618C121.723 42.314 120.517 42.662 118.969 42.662H117.673V47H115.441V34.85ZM117.673 36.686V40.826H119.077C119.881 40.826 120.505 40.646 120.949 40.286C121.405 39.914 121.633 39.392 121.633 38.72C121.633 38.06 121.411 37.556 120.967 37.208C120.535 36.86 119.911 36.686 119.095 36.686H117.673ZM125.492 33.59H127.724V47H125.492V33.59ZM132.356 47.234C131.444 47.234 130.712 46.988 130.16 46.496C129.608 46.004 129.332 45.344 129.332 44.516C129.332 43.46 129.752 42.644 130.592 42.068C131.432 41.48 132.626 41.186 134.174 41.186C134.306 41.186 134.438 41.186 134.57 41.186C134.702 41.186 134.828 41.192 134.948 41.204C134.912 40.532 134.72 40.034 134.372 39.71C134.024 39.386 133.502 39.224 132.806 39.224C131.918 39.224 131.03 39.476 130.142 39.98V38.18C131.114 37.676 132.116 37.424 133.148 37.424C134.408 37.424 135.38 37.772 136.064 38.468C136.748 39.152 137.09 40.136 137.09 41.42V47H135.236L135.11 45.92C134.822 46.328 134.432 46.652 133.94 46.892C133.46 47.12 132.932 47.234 132.356 47.234ZM132.968 45.65C133.52 45.65 133.988 45.452 134.372 45.056C134.768 44.66 134.966 44.18 134.966 43.616V42.698C134.846 42.698 134.72 42.698 134.588 42.698C134.468 42.686 134.342 42.68 134.21 42.68C133.322 42.68 132.638 42.818 132.158 43.094C131.69 43.358 131.456 43.748 131.456 44.264C131.456 44.684 131.594 45.02 131.87 45.272C132.146 45.524 132.512 45.65 132.968 45.65ZM139.899 50.654C139.587 50.654 139.233 50.6 138.837 50.492V48.62C139.089 48.692 139.329 48.728 139.557 48.728C140.013 48.728 140.385 48.578 140.673 48.278C140.961 47.978 141.255 47.438 141.555 46.658L137.937 37.658H140.385L142.599 44.246L144.687 37.658H147.045L143.481 47.144C143.169 47.984 142.839 48.656 142.491 49.16C142.155 49.676 141.777 50.054 141.357 50.294C140.937 50.534 140.451 50.654 139.899 50.654Z" fill="white"/>
<path d="M35.8024 29.9854L25.6477 19.6099L38.5674 27.1678L35.8024 29.9854ZM22.9982 19C22.3997 19.3188 22 19.9002 22 20.6549V41.3451C22 42.0998 22.4005 42.6812 22.9982 43L34.8049 30.9974L22.9982 19ZM42.5611 29.5773L39.8513 27.9787L36.8286 31.0026L39.8513 34.0265L42.6164 32.4279C43.4446 31.758 43.4446 30.248 42.5611 29.5773ZM25.6484 42.3961L38.5682 34.8382L35.8031 32.0206L25.6484 42.3961Z" fill="white"/>
</svg>
