<svg width="176" height="64" viewBox="0 0 176 64" fill="none" xmlns="http://www.w3.org/2000/svg">
<rect x="0.5" y="0.5" width="175" height="63" rx="7.5" stroke="white"/>
<path d="M56.91 17.225H59.211C60.6497 17.225 61.772 17.6107 62.578 18.382C63.384 19.1533 63.787 20.2237 63.787 21.593C63.787 22.5203 63.5963 23.3177 63.215 23.985C62.8337 24.6437 62.2877 25.1463 61.577 25.493C60.8663 25.831 60.0257 26 59.055 26H56.91V17.225ZM58.08 18.226V24.999H59.133C60.2337 24.999 61.083 24.7087 61.681 24.128C62.279 23.5387 62.578 22.7023 62.578 21.619C62.578 20.527 62.2833 19.6907 61.694 19.11C61.1133 18.5207 60.2857 18.226 59.211 18.226H58.08ZM67.8756 26.169C67.2603 26.169 66.7229 26.0173 66.2636 25.714C65.8043 25.4107 65.4489 24.9947 65.1976 24.466C64.9549 23.9373 64.8336 23.335 64.8336 22.659C64.8336 21.9483 64.9636 21.3287 65.2236 20.8C65.4923 20.2627 65.8563 19.851 66.3156 19.565C66.7749 19.279 67.2993 19.136 67.8886 19.136C68.5039 19.136 69.0413 19.2877 69.5006 19.591C69.9599 19.8943 70.3109 20.3103 70.5536 20.839C70.8049 21.3677 70.9306 21.97 70.9306 22.646C70.9306 23.3567 70.7963 23.9807 70.5276 24.518C70.2676 25.0467 69.9079 25.454 69.4486 25.74C68.9893 26.026 68.4649 26.169 67.8756 26.169ZM67.8886 25.207C68.4693 25.207 68.9286 24.9773 69.2666 24.518C69.6046 24.0587 69.7736 23.439 69.7736 22.659C69.7736 21.879 69.6003 21.2593 69.2536 20.8C68.9156 20.332 68.4563 20.098 67.8756 20.098C67.2949 20.098 66.8356 20.3277 66.4976 20.787C66.1596 21.2463 65.9906 21.866 65.9906 22.646C65.9906 23.426 66.1596 24.05 66.4976 24.518C66.8443 24.9773 67.3079 25.207 67.8886 25.207ZM71.4034 19.305H72.5734L73.8604 24.622L75.2514 19.565H76.3304L77.7084 24.622L78.9954 19.305H80.1394L78.3064 26H77.1494L75.7584 20.943L74.3934 26H73.2494L71.4034 19.305ZM81.1305 19.305H82.1315L82.1965 20.228C82.4219 19.8727 82.7079 19.604 83.0545 19.422C83.4099 19.2313 83.8085 19.136 84.2505 19.136C84.9612 19.136 85.5245 19.3787 85.9405 19.864C86.3565 20.3407 86.5645 20.9863 86.5645 21.801V26H85.4205V21.97C85.4205 21.3807 85.2862 20.9257 85.0175 20.605C84.7575 20.2757 84.3892 20.111 83.9125 20.111C83.4272 20.111 83.0329 20.2843 82.7295 20.631C82.4262 20.969 82.2745 21.4153 82.2745 21.97V26H81.1305V19.305ZM88.151 16.315H89.295V26H88.151V16.315ZM93.5963 26.169C92.981 26.169 92.4436 26.0173 91.9843 25.714C91.525 25.4107 91.1696 24.9947 90.9183 24.466C90.6756 23.9373 90.5543 23.335 90.5543 22.659C90.5543 21.9483 90.6843 21.3287 90.9443 20.8C91.213 20.2627 91.577 19.851 92.0363 19.565C92.4956 19.279 93.02 19.136 93.6093 19.136C94.2246 19.136 94.762 19.2877 95.2213 19.591C95.6806 19.8943 96.0316 20.3103 96.2743 20.839C96.5256 21.3677 96.6513 21.97 96.6513 22.646C96.6513 23.3567 96.517 23.9807 96.2483 24.518C95.9883 25.0467 95.6286 25.454 95.1693 25.74C94.71 26.026 94.1856 26.169 93.5963 26.169ZM93.6093 25.207C94.19 25.207 94.6493 24.9773 94.9873 24.518C95.3253 24.0587 95.4943 23.439 95.4943 22.659C95.4943 21.879 95.321 21.2593 94.9743 20.8C94.6363 20.332 94.177 20.098 93.5963 20.098C93.0156 20.098 92.5563 20.3277 92.2183 20.787C91.8803 21.2463 91.7113 21.866 91.7113 22.646C91.7113 23.426 91.8803 24.05 92.2183 24.518C92.565 24.9773 93.0286 25.207 93.6093 25.207ZM99.7467 26.169C99.0967 26.169 98.5767 25.9913 98.1867 25.636C97.8054 25.2807 97.6147 24.8127 97.6147 24.232C97.6147 23.4867 97.9181 22.9147 98.5247 22.516C99.1401 22.1087 100.024 21.905 101.177 21.905C101.272 21.905 101.363 21.905 101.45 21.905C101.545 21.905 101.64 21.9093 101.736 21.918C101.727 21.294 101.588 20.8347 101.32 20.54C101.051 20.2453 100.639 20.098 100.085 20.098C99.4174 20.098 98.7761 20.2887 98.1607 20.67V19.708C98.8194 19.3267 99.5084 19.136 100.228 19.136C101.068 19.136 101.714 19.3787 102.165 19.864C102.624 20.3407 102.854 21.0253 102.854 21.918V26H101.879L101.814 25.116C101.606 25.4453 101.315 25.7053 100.943 25.896C100.579 26.078 100.18 26.169 99.7467 26.169ZM100.007 25.298C100.327 25.298 100.622 25.2157 100.891 25.051C101.159 24.8863 101.367 24.674 101.515 24.414C101.662 24.154 101.736 23.8723 101.736 23.569V22.763C101.632 22.7543 101.528 22.75 101.424 22.75C101.328 22.75 101.233 22.75 101.138 22.75C100.349 22.75 99.7467 22.867 99.3307 23.101C98.9234 23.335 98.7197 23.673 98.7197 24.115C98.7197 24.4703 98.8367 24.7563 99.0707 24.973C99.3134 25.1897 99.6254 25.298 100.007 25.298ZM106.779 26.169C106.224 26.169 105.739 26.0217 105.323 25.727C104.916 25.4237 104.604 25.012 104.387 24.492C104.17 23.9633 104.062 23.361 104.062 22.685C104.062 21.957 104.179 21.3243 104.413 20.787C104.656 20.2497 104.985 19.8423 105.401 19.565C105.826 19.279 106.311 19.136 106.857 19.136C107.273 19.136 107.65 19.2313 107.988 19.422C108.326 19.604 108.608 19.8727 108.833 20.228V16.315H109.977V26H108.976L108.898 24.934C108.699 25.3153 108.408 25.6187 108.027 25.844C107.654 26.0607 107.238 26.169 106.779 26.169ZM107.065 25.207C107.611 25.207 108.049 24.9773 108.378 24.518C108.707 24.0587 108.872 23.4433 108.872 22.672C108.872 21.892 108.707 21.268 108.378 20.8C108.049 20.332 107.611 20.098 107.065 20.098C106.493 20.098 106.042 20.3277 105.713 20.787C105.384 21.2463 105.219 21.8703 105.219 22.659C105.219 23.4477 105.384 24.0717 105.713 24.531C106.042 24.9817 106.493 25.207 107.065 25.207ZM113.171 19.305H114.393L116.213 24.765L118.033 19.305H119.216L116.759 26H115.641L113.171 19.305ZM120.207 19.305H121.351V26H120.207V19.305ZM120.779 18.018C120.562 18.018 120.38 17.9487 120.233 17.81C120.094 17.6627 120.025 17.485 120.025 17.277C120.025 17.069 120.094 16.8957 120.233 16.757C120.38 16.6097 120.562 16.536 120.779 16.536C120.995 16.536 121.173 16.6097 121.312 16.757C121.459 16.8957 121.533 17.069 121.533 17.277C121.533 17.485 121.459 17.6627 121.312 17.81C121.173 17.9487 120.995 18.018 120.779 18.018ZM124.82 26.169C124.17 26.169 123.65 25.9913 123.26 25.636C122.879 25.2807 122.688 24.8127 122.688 24.232C122.688 23.4867 122.991 22.9147 123.598 22.516C124.213 22.1087 125.097 21.905 126.25 21.905C126.345 21.905 126.436 21.905 126.523 21.905C126.618 21.905 126.714 21.9093 126.809 21.918C126.8 21.294 126.662 20.8347 126.393 20.54C126.124 20.2453 125.713 20.098 125.158 20.098C124.491 20.098 123.849 20.2887 123.234 20.67V19.708C123.893 19.3267 124.582 19.136 125.301 19.136C126.142 19.136 126.787 19.3787 127.238 19.864C127.697 20.3407 127.927 21.0253 127.927 21.918V26H126.952L126.887 25.116C126.679 25.4453 126.389 25.7053 126.016 25.896C125.652 26.078 125.253 26.169 124.82 26.169ZM125.08 25.298C125.401 25.298 125.695 25.2157 125.964 25.051C126.233 24.8863 126.441 24.674 126.588 24.414C126.735 24.154 126.809 23.8723 126.809 23.569V22.763C126.705 22.7543 126.601 22.75 126.497 22.75C126.402 22.75 126.306 22.75 126.211 22.75C125.422 22.75 124.82 22.867 124.404 23.101C123.997 23.335 123.793 23.673 123.793 24.115C123.793 24.4703 123.91 24.7563 124.144 24.973C124.387 25.1897 124.699 25.298 125.08 25.298Z" fill="white"/>
<path d="M60.662 34.85H63.164L67.502 47H65.144L64.208 44.192H59.546L58.628 47H56.324L60.662 34.85ZM60.122 42.41H63.632L61.868 37.064L60.122 42.41ZM68.8381 37.658H70.8001L70.9261 38.954C71.2021 38.474 71.5801 38.102 72.0601 37.838C72.5521 37.562 73.1041 37.424 73.7161 37.424C74.4961 37.424 75.1681 37.628 75.7321 38.036C76.3081 38.444 76.7461 39.014 77.0461 39.746C77.3461 40.478 77.4961 41.324 77.4961 42.284C77.4961 43.304 77.3281 44.186 76.9921 44.93C76.6681 45.674 76.2121 46.244 75.6241 46.64C75.0481 47.036 74.3821 47.234 73.6261 47.234C73.0981 47.234 72.6121 47.126 72.1681 46.91C71.7361 46.694 71.3701 46.382 71.0701 45.974V50.42H68.8381V37.658ZM73.1221 45.398C73.7821 45.398 74.2981 45.128 74.6701 44.588C75.0541 44.048 75.2461 43.298 75.2461 42.338C75.2461 41.378 75.0541 40.628 74.6701 40.088C74.2981 39.536 73.7821 39.26 73.1221 39.26C72.4621 39.26 71.9461 39.53 71.5741 40.07C71.2021 40.61 71.0161 41.354 71.0161 42.302C71.0161 43.25 71.2021 44.006 71.5741 44.57C71.9461 45.122 72.4621 45.398 73.1221 45.398ZM79.0685 37.658H81.0305L81.1565 38.954C81.4325 38.474 81.8105 38.102 82.2905 37.838C82.7825 37.562 83.3345 37.424 83.9465 37.424C84.7265 37.424 85.3985 37.628 85.9625 38.036C86.5385 38.444 86.9765 39.014 87.2765 39.746C87.5765 40.478 87.7265 41.324 87.7265 42.284C87.7265 43.304 87.5585 44.186 87.2225 44.93C86.8985 45.674 86.4425 46.244 85.8545 46.64C85.2785 47.036 84.6125 47.234 83.8565 47.234C83.3285 47.234 82.8425 47.126 82.3985 46.91C81.9665 46.694 81.6005 46.382 81.3005 45.974V50.42H79.0685V37.658ZM83.3525 45.398C84.0125 45.398 84.5285 45.128 84.9005 44.588C85.2845 44.048 85.4765 43.298 85.4765 42.338C85.4765 41.378 85.2845 40.628 84.9005 40.088C84.5285 39.536 84.0125 39.26 83.3525 39.26C82.6925 39.26 82.1765 39.53 81.8045 40.07C81.4325 40.61 81.2465 41.354 81.2465 42.302C81.2465 43.25 81.4325 44.006 81.8045 44.57C82.1765 45.122 82.6925 45.398 83.3525 45.398ZM89.299 33.59H91.531V47H89.299V33.59ZM97.7829 47.234C96.3189 47.234 95.1729 46.796 94.3449 45.92C93.5169 45.044 93.1029 43.838 93.1029 42.302C93.1029 41.318 93.2829 40.46 93.6429 39.728C94.0149 38.984 94.5249 38.414 95.1729 38.018C95.8209 37.622 96.5589 37.424 97.3869 37.424C98.5989 37.424 99.5529 37.832 100.249 38.648C100.945 39.464 101.293 40.592 101.293 42.032V43.04H95.2449C95.3649 43.832 95.6649 44.432 96.1449 44.84C96.6249 45.248 97.2669 45.452 98.0709 45.452C98.9589 45.452 99.8409 45.224 100.717 44.768V46.55C99.8769 47.006 98.8989 47.234 97.7829 47.234ZM97.2969 39.134C96.7089 39.134 96.2349 39.338 95.8749 39.746C95.5269 40.142 95.3109 40.724 95.2269 41.492H99.2229C99.1989 40.748 99.0189 40.172 98.6829 39.764C98.3469 39.344 97.8849 39.134 97.2969 39.134ZM109.133 47.234C107.777 47.234 106.577 46.976 105.533 46.46V44.408C106.709 45.008 107.801 45.308 108.809 45.308C109.553 45.308 110.129 45.164 110.537 44.876C110.945 44.588 111.149 44.18 111.149 43.652C111.149 43.352 111.071 43.094 110.915 42.878C110.771 42.662 110.507 42.458 110.123 42.266C109.751 42.062 109.205 41.84 108.485 41.6C106.577 40.964 105.623 39.836 105.623 38.216C105.623 37.484 105.809 36.848 106.181 36.308C106.553 35.756 107.069 35.336 107.729 35.048C108.389 34.76 109.151 34.616 110.015 34.616C111.023 34.616 111.929 34.808 112.733 35.192V37.154C111.905 36.734 111.029 36.524 110.105 36.524C109.409 36.524 108.869 36.662 108.485 36.938C108.101 37.202 107.909 37.574 107.909 38.054C107.909 38.474 108.077 38.822 108.413 39.098C108.761 39.362 109.409 39.65 110.357 39.962C111.437 40.322 112.229 40.79 112.733 41.366C113.249 41.942 113.507 42.662 113.507 43.526C113.507 44.294 113.321 44.96 112.949 45.524C112.589 46.076 112.079 46.502 111.419 46.802C110.759 47.09 109.997 47.234 109.133 47.234ZM118.669 47.18C117.661 47.18 116.899 46.916 116.383 46.388C115.867 45.848 115.609 45.05 115.609 43.994V39.386H114.133V37.658H115.609V35.174H117.841V37.658H119.929V39.386H117.841V43.796C117.841 44.336 117.949 44.738 118.165 45.002C118.381 45.254 118.717 45.38 119.173 45.38C119.521 45.38 119.857 45.308 120.181 45.164V46.91C119.689 47.09 119.185 47.18 118.669 47.18ZM125.374 47.234C124.474 47.234 123.688 47.03 123.016 46.622C122.356 46.202 121.846 45.626 121.486 44.894C121.138 44.15 120.964 43.298 120.964 42.338C120.964 41.342 121.15 40.472 121.522 39.728C121.906 38.984 122.428 38.414 123.088 38.018C123.76 37.622 124.522 37.424 125.374 37.424C126.274 37.424 127.054 37.634 127.714 38.054C128.386 38.462 128.896 39.038 129.244 39.782C129.604 40.514 129.784 41.36 129.784 42.32C129.784 43.316 129.592 44.186 129.208 44.93C128.836 45.674 128.314 46.244 127.642 46.64C126.982 47.036 126.226 47.234 125.374 47.234ZM125.374 45.398C126.046 45.398 126.574 45.128 126.958 44.588C127.342 44.048 127.534 43.298 127.534 42.338C127.534 41.39 127.342 40.64 126.958 40.088C126.574 39.536 126.046 39.26 125.374 39.26C124.702 39.26 124.174 39.53 123.79 40.07C123.406 40.61 123.214 41.36 123.214 42.32C123.214 43.268 123.406 44.018 123.79 44.57C124.174 45.122 124.702 45.398 125.374 45.398ZM131.346 37.658H133.308L133.452 39.008C133.68 38.528 133.986 38.156 134.37 37.892C134.766 37.616 135.204 37.478 135.684 37.478C135.972 37.478 136.206 37.514 136.386 37.586V39.638C136.17 39.554 135.906 39.512 135.594 39.512C134.982 39.512 134.49 39.74 134.118 40.196C133.758 40.64 133.578 41.246 133.578 42.014V47H131.346V37.658ZM141.799 47.234C140.335 47.234 139.189 46.796 138.361 45.92C137.533 45.044 137.119 43.838 137.119 42.302C137.119 41.318 137.299 40.46 137.659 39.728C138.031 38.984 138.541 38.414 139.189 38.018C139.837 37.622 140.575 37.424 141.403 37.424C142.615 37.424 143.569 37.832 144.265 38.648C144.961 39.464 145.309 40.592 145.309 42.032V43.04H139.261C139.381 43.832 139.681 44.432 140.161 44.84C140.641 45.248 141.283 45.452 142.087 45.452C142.975 45.452 143.857 45.224 144.733 44.768V46.55C143.893 47.006 142.915 47.234 141.799 47.234ZM141.313 39.134C140.725 39.134 140.251 39.338 139.891 39.746C139.543 40.142 139.327 40.724 139.243 41.492H143.239C143.215 40.748 143.035 40.172 142.699 39.764C142.363 39.344 141.901 39.134 141.313 39.134Z" fill="white"/>
<path d="M26.7018 42.4639C26.1434 42.0968 25.6486 41.6432 25.2363 41.1205C24.7827 40.581 24.3625 40.015 23.9779 39.4256C23.0753 38.1188 22.3675 36.6905 21.8761 35.1847C21.2858 33.4355 21 31.7589 21 30.119C21 28.2876 21.4009 26.6889 22.185 25.3455C22.7662 24.2955 23.6207 23.4181 24.6602 22.804C25.6675 22.1856 26.825 21.8472 28.0106 21.8244C28.4257 21.8244 28.8726 21.8839 29.3469 21.9976C29.6876 22.0929 30.1027 22.2434 30.6097 22.4305C31.2549 22.6763 31.6097 22.8267 31.7301 22.8634C32.108 22.9999 32.4257 23.0593 32.6752 23.0593C32.8646 23.0593 33.1319 22.9999 33.4354 22.9089C33.6062 22.8494 33.9283 22.7445 34.3894 22.5495C34.846 22.385 35.2053 22.2442 35.4911 22.1393C35.9292 22.0116 36.3531 21.8935 36.731 21.834C37.1789 21.7642 37.6336 21.7458 38.0858 21.7789C38.8696 21.8296 39.6415 21.9937 40.377 22.2661C41.5796 22.7445 42.5522 23.4914 43.2761 24.5531C42.9701 24.7395 42.683 24.9545 42.4186 25.1951C41.843 25.6994 41.3528 26.2914 40.9664 26.9486C40.4613 27.8469 40.1995 28.8588 40.2062 29.8864C40.2248 31.1484 40.5522 32.26 41.1973 33.2212C41.6716 33.9336 42.288 34.5428 43.0088 35.0115C43.3779 35.2573 43.6956 35.4261 44 35.5397C43.8575 35.977 43.7053 36.4003 43.5257 36.8201C43.1182 37.7616 42.6244 38.6641 42.0504 39.5165C41.5389 40.2503 41.1381 40.7969 40.8336 41.1607C40.3593 41.7161 39.9027 42.1403 39.4416 42.4359C38.9345 42.7682 38.3354 42.9458 37.7265 42.9458C37.3142 42.9614 36.902 42.9121 36.5053 42.7997C36.1646 42.686 35.8274 42.5627 35.4956 42.4219C35.1506 42.2653 34.7948 42.1329 34.431 42.0257C33.5316 41.7974 32.5886 41.7959 31.6885 42.0213C31.3195 42.1263 30.9646 42.2487 30.6142 42.3992C30.1212 42.6038 29.7938 42.7411 29.6044 42.7997C29.2265 42.909 28.8345 42.9773 28.4381 43C27.8248 43 27.2531 42.8268 26.6867 42.4761L26.7018 42.4639ZM34.7903 20.9358C33.9885 21.332 33.223 21.5008 32.4628 21.4457C32.3434 20.6892 32.4628 19.9152 32.7805 19.0677C33.051 18.3497 33.4507 17.686 33.9602 17.1086C34.4982 16.5008 35.1511 16.0026 35.8823 15.6419C36.6611 15.2458 37.4035 15.0315 38.1133 15C38.2053 15.7924 38.1133 16.5716 37.8186 17.4139C37.5459 18.1584 37.147 18.8516 36.6389 19.4639C36.1204 20.0726 35.4841 20.5727 34.7673 20.935L34.7903 20.9358Z" fill="white"/>
</svg>
