<svg width="208" height="66" viewBox="0 0 208 66" fill="none" xmlns="http://www.w3.org/2000/svg">
<rect width="208" height="66" rx="4" fill="url(#paint0_linear_318:110)"/>
<circle cx="32.5" cy="32.5" r="17.5" fill="#FFE8D7"/>
<path d="M32.7021 32.6846C32.6247 33.7555 32.2282 34.5986 31.5127 35.2139C30.8018 35.8291 29.863 36.1367 28.6963 36.1367C27.4202 36.1367 26.4154 35.7083 25.6816 34.8516C24.9525 33.9902 24.5879 32.8099 24.5879 31.3105V30.7021C24.5879 29.7451 24.7565 28.902 25.0938 28.1729C25.431 27.4437 25.9118 26.8854 26.5361 26.498C27.165 26.1061 27.8942 25.9102 28.7236 25.9102C29.8721 25.9102 30.7972 26.2178 31.499 26.833C32.2008 27.4482 32.6064 28.3118 32.7158 29.4238H30.665C30.6149 28.7812 30.4349 28.3164 30.125 28.0293C29.8197 27.7376 29.3525 27.5918 28.7236 27.5918C28.04 27.5918 27.5273 27.8379 27.1855 28.3301C26.8483 28.8177 26.6751 29.5765 26.666 30.6064V31.3584C26.666 32.4339 26.8278 33.2201 27.1514 33.7168C27.4795 34.2135 27.9945 34.4619 28.6963 34.4619C29.3298 34.4619 29.8014 34.3184 30.1113 34.0312C30.4258 33.7396 30.6058 33.2907 30.6514 32.6846H32.7021ZM39.668 33.9492H36.0723L35.3887 36H33.208L36.9131 26.0469H38.8135L42.5391 36H40.3584L39.668 33.9492ZM36.626 32.2881H39.1143L37.8633 28.5625L36.626 32.2881Z" fill="#EC7000"/>
<path d="M72.7021 24.6846C72.6247 25.7555 72.2282 26.5986 71.5127 27.2139C70.8018 27.8291 69.863 28.1367 68.6963 28.1367C67.4202 28.1367 66.4154 27.7083 65.6816 26.8516C64.9525 25.9902 64.5879 24.8099 64.5879 23.3105V22.7021C64.5879 21.7451 64.7565 20.902 65.0938 20.1729C65.431 19.4437 65.9118 18.8854 66.5361 18.498C67.165 18.1061 67.8942 17.9102 68.7236 17.9102C69.8721 17.9102 70.7972 18.2178 71.499 18.833C72.2008 19.4482 72.6064 20.3118 72.7158 21.4238H70.665C70.6149 20.7812 70.4349 20.3164 70.125 20.0293C69.8197 19.7376 69.3525 19.5918 68.7236 19.5918C68.04 19.5918 67.5273 19.8379 67.1855 20.3301C66.8483 20.8177 66.6751 21.5765 66.666 22.6064V23.3584C66.666 24.4339 66.8278 25.2201 67.1514 25.7168C67.4795 26.2135 67.9945 26.4619 68.6963 26.4619C69.3298 26.4619 69.8014 26.3184 70.1113 26.0312C70.4258 25.7396 70.6058 25.2907 70.6514 24.6846H72.7021ZM78.2051 28C78.1139 27.8223 78.0479 27.6012 78.0068 27.3369C77.5283 27.8701 76.9062 28.1367 76.1406 28.1367C75.416 28.1367 74.8145 27.9271 74.3359 27.5078C73.862 27.0885 73.625 26.5599 73.625 25.9219C73.625 25.138 73.9144 24.5365 74.4932 24.1172C75.0765 23.6979 75.9173 23.486 77.0156 23.4814H77.9248V23.0576C77.9248 22.7158 77.8359 22.4424 77.6582 22.2373C77.485 22.0322 77.2093 21.9297 76.8311 21.9297C76.4984 21.9297 76.2363 22.0094 76.0449 22.1689C75.8581 22.3285 75.7646 22.5472 75.7646 22.8252H73.7891C73.7891 22.3968 73.9212 22.0003 74.1855 21.6357C74.4499 21.2712 74.8236 20.9863 75.3066 20.7812C75.7897 20.5716 76.332 20.4668 76.9336 20.4668C77.8451 20.4668 78.5674 20.6969 79.1006 21.1572C79.6383 21.613 79.9072 22.2555 79.9072 23.085V26.291C79.9118 26.9928 80.0098 27.5238 80.2012 27.8838V28H78.2051ZM76.5713 26.626C76.863 26.626 77.1318 26.5622 77.3779 26.4346C77.624 26.3024 77.8063 26.127 77.9248 25.9082V24.6367H77.1865C76.1976 24.6367 75.6712 24.9785 75.6074 25.6621L75.6006 25.7783C75.6006 26.0244 75.6872 26.2272 75.8604 26.3867C76.0335 26.5462 76.2705 26.626 76.5713 26.626ZM85.5811 22.4561C85.3122 22.4196 85.0752 22.4014 84.8701 22.4014C84.1227 22.4014 83.6328 22.6543 83.4004 23.1602V28H81.4248V20.6035H83.291L83.3457 21.4854C83.7422 20.8063 84.2913 20.4668 84.9932 20.4668C85.2119 20.4668 85.417 20.4964 85.6084 20.5557L85.5811 22.4561ZM85.9844 24.2334C85.9844 23.4997 86.1257 22.8457 86.4082 22.2715C86.6908 21.6973 87.0964 21.2529 87.625 20.9385C88.1582 20.624 88.7757 20.4668 89.4775 20.4668C90.4756 20.4668 91.2891 20.7721 91.918 21.3828C92.5514 21.9935 92.9046 22.8229 92.9775 23.8711L92.9912 24.377C92.9912 25.5117 92.6745 26.4232 92.041 27.1113C91.4076 27.7949 90.5576 28.1367 89.4912 28.1367C88.4248 28.1367 87.5726 27.7949 86.9346 27.1113C86.3011 26.4277 85.9844 25.498 85.9844 24.3223V24.2334ZM87.96 24.377C87.96 25.0788 88.0921 25.6165 88.3564 25.9902C88.6208 26.3594 88.999 26.5439 89.4912 26.5439C89.9697 26.5439 90.3434 26.3617 90.6123 25.9971C90.8812 25.6279 91.0156 25.04 91.0156 24.2334C91.0156 23.5452 90.8812 23.012 90.6123 22.6338C90.3434 22.2555 89.9652 22.0664 89.4775 22.0664C88.9945 22.0664 88.6208 22.2555 88.3564 22.6338C88.0921 23.0075 87.96 23.5885 87.96 24.377ZM96.293 28H94.3105V17.5H96.293V28ZM100.012 28H98.0293V20.6035H100.012V28ZM97.9131 18.6895C97.9131 18.3932 98.0111 18.1494 98.207 17.958C98.4076 17.7666 98.6787 17.6709 99.0205 17.6709C99.3577 17.6709 99.6266 17.7666 99.8271 17.958C100.028 18.1494 100.128 18.3932 100.128 18.6895C100.128 18.9902 100.025 19.2363 99.8203 19.4277C99.6198 19.6191 99.3532 19.7148 99.0205 19.7148C98.6878 19.7148 98.4189 19.6191 98.2139 19.4277C98.0133 19.2363 97.9131 18.9902 97.9131 18.6895ZM103.464 20.6035L103.525 21.458C104.054 20.7972 104.763 20.4668 105.651 20.4668C106.435 20.4668 107.019 20.6969 107.401 21.1572C107.784 21.6175 107.98 22.3057 107.989 23.2217V28H106.014V23.2695C106.014 22.8503 105.923 22.5472 105.74 22.3604C105.558 22.1689 105.255 22.0732 104.831 22.0732C104.275 22.0732 103.858 22.3102 103.58 22.7842V28H101.604V20.6035H103.464ZM112.897 28.1367C111.813 28.1367 110.929 27.804 110.245 27.1387C109.566 26.4733 109.227 25.5869 109.227 24.4795V24.2881C109.227 23.5452 109.37 22.8822 109.657 22.2988C109.944 21.7109 110.35 21.2598 110.874 20.9453C111.403 20.6263 112.004 20.4668 112.679 20.4668C113.69 20.4668 114.486 20.7858 115.064 21.4238C115.648 22.0618 115.939 22.9665 115.939 24.1377V24.9443H111.229C111.293 25.4274 111.485 25.8148 111.804 26.1064C112.127 26.3981 112.535 26.5439 113.027 26.5439C113.788 26.5439 114.383 26.2682 114.812 25.7168L115.782 26.8037C115.486 27.223 115.085 27.5511 114.579 27.7881C114.073 28.0205 113.513 28.1367 112.897 28.1367ZM112.672 22.0664C112.28 22.0664 111.961 22.1986 111.715 22.4629C111.473 22.7272 111.318 23.1055 111.25 23.5977H113.998V23.4404C113.989 23.0029 113.87 22.6657 113.643 22.4287C113.415 22.1872 113.091 22.0664 112.672 22.0664ZM126.303 25.9492H122.707L122.023 28H119.843L123.548 18.0469H125.448L129.174 28H126.993L126.303 25.9492ZM123.261 24.2881H125.749L124.498 20.5625L123.261 24.2881ZM134.13 22.4561C133.861 22.4196 133.624 22.4014 133.419 22.4014C132.672 22.4014 132.182 22.6543 131.949 23.1602V28H129.974V20.6035H131.84L131.895 21.4854C132.291 20.8063 132.84 20.4668 133.542 20.4668C133.761 20.4668 133.966 20.4964 134.157 20.5557L134.13 22.4561ZM139.168 28C139.077 27.8223 139.011 27.6012 138.97 27.3369C138.491 27.8701 137.869 28.1367 137.104 28.1367C136.379 28.1367 135.777 27.9271 135.299 27.5078C134.825 27.0885 134.588 26.5599 134.588 25.9219C134.588 25.138 134.877 24.5365 135.456 24.1172C136.039 23.6979 136.88 23.486 137.979 23.4814H138.888V23.0576C138.888 22.7158 138.799 22.4424 138.621 22.2373C138.448 22.0322 138.172 21.9297 137.794 21.9297C137.461 21.9297 137.199 22.0094 137.008 22.1689C136.821 22.3285 136.728 22.5472 136.728 22.8252H134.752C134.752 22.3968 134.884 22.0003 135.148 21.6357C135.413 21.2712 135.786 20.9863 136.27 20.7812C136.753 20.5716 137.295 20.4668 137.896 20.4668C138.808 20.4668 139.53 20.6969 140.063 21.1572C140.601 21.613 140.87 22.2555 140.87 23.085V26.291C140.875 26.9928 140.973 27.5238 141.164 27.8838V28H139.168ZM137.534 26.626C137.826 26.626 138.095 26.5622 138.341 26.4346C138.587 26.3024 138.769 26.127 138.888 25.9082V24.6367H138.149C137.16 24.6367 136.634 24.9785 136.57 25.6621L136.563 25.7783C136.563 26.0244 136.65 26.2272 136.823 26.3867C136.996 26.5462 137.233 26.626 137.534 26.626ZM146.817 27.248C146.33 27.8405 145.655 28.1367 144.794 28.1367C144.001 28.1367 143.395 27.9089 142.976 27.4531C142.561 26.9974 142.349 26.3298 142.34 25.4502V20.6035H144.315V25.3818C144.315 26.152 144.666 26.5371 145.368 26.5371C146.038 26.5371 146.498 26.3047 146.749 25.8398V20.6035H148.731V28H146.872L146.817 27.248ZM145.936 17.5H148.089L146.195 19.6191H144.589L145.936 17.5ZM152.313 20.6035V28.4033C152.313 29.2191 152.097 29.8525 151.664 30.3037C151.231 30.7594 150.607 30.9873 149.791 30.9873C149.449 30.9873 149.123 30.9486 148.813 30.8711V29.3057C149.05 29.3467 149.258 29.3672 149.436 29.3672C150.033 29.3672 150.331 29.0505 150.331 28.417V20.6035H152.313ZM150.174 18.6895C150.174 18.3932 150.272 18.1494 150.468 17.958C150.668 17.7666 150.939 17.6709 151.281 17.6709C151.623 17.6709 151.892 17.7666 152.088 17.958C152.288 18.1494 152.389 18.3932 152.389 18.6895C152.389 18.9902 152.286 19.2363 152.081 19.4277C151.881 19.6191 151.614 19.7148 151.281 19.7148C150.949 19.7148 150.68 19.6191 150.475 19.4277C150.274 19.2363 150.174 18.9902 150.174 18.6895ZM153.551 24.2334C153.551 23.4997 153.692 22.8457 153.975 22.2715C154.257 21.6973 154.663 21.2529 155.191 20.9385C155.725 20.624 156.342 20.4668 157.044 20.4668C158.042 20.4668 158.855 20.7721 159.484 21.3828C160.118 21.9935 160.471 22.8229 160.544 23.8711L160.558 24.377C160.558 25.5117 160.241 26.4232 159.607 27.1113C158.974 27.7949 158.124 28.1367 157.058 28.1367C155.991 28.1367 155.139 27.7949 154.501 27.1113C153.868 26.4277 153.551 25.498 153.551 24.3223V24.2334ZM155.526 24.377C155.526 25.0788 155.659 25.6165 155.923 25.9902C156.187 26.3594 156.565 26.5439 157.058 26.5439C157.536 26.5439 157.91 26.3617 158.179 25.9971C158.448 25.6279 158.582 25.04 158.582 24.2334C158.582 23.5452 158.448 23.012 158.179 22.6338C157.91 22.2555 157.532 22.0664 157.044 22.0664C156.561 22.0664 156.187 22.2555 155.923 22.6338C155.659 23.0075 155.526 23.5885 155.526 24.377Z" fill="#645039"/>
<path opacity="0.7" d="M67.9453 45C67.8932 44.8958 67.8509 44.7103 67.8184 44.4434C67.3984 44.8796 66.8971 45.0977 66.3145 45.0977C65.7936 45.0977 65.3656 44.9512 65.0303 44.6582C64.6982 44.362 64.5322 43.9876 64.5322 43.5352C64.5322 42.985 64.7406 42.5586 65.1572 42.2559C65.5771 41.9499 66.1663 41.7969 66.9248 41.7969H67.8037V41.3818C67.8037 41.0661 67.7093 40.8154 67.5205 40.6299C67.3317 40.4411 67.0534 40.3467 66.6855 40.3467C66.3633 40.3467 66.0931 40.4281 65.875 40.5908C65.6569 40.7536 65.5479 40.9505 65.5479 41.1816H64.6396C64.6396 40.918 64.7324 40.6641 64.918 40.4199C65.1068 40.1725 65.3607 39.9772 65.6797 39.834C66.002 39.6908 66.3551 39.6191 66.7393 39.6191C67.348 39.6191 67.8249 39.7721 68.1699 40.0781C68.515 40.3809 68.694 40.7992 68.707 41.333V43.7646C68.707 44.2497 68.7689 44.6354 68.8926 44.9219V45H67.9453ZM66.4463 44.3115C66.7295 44.3115 66.998 44.2383 67.252 44.0918C67.5059 43.9453 67.6898 43.7549 67.8037 43.5205V42.4365H67.0957C65.9889 42.4365 65.4355 42.7604 65.4355 43.4082C65.4355 43.6914 65.5299 43.9128 65.7188 44.0723C65.9076 44.2318 66.1501 44.3115 66.4463 44.3115ZM69.9082 42.3145C69.9082 41.4909 70.0986 40.8366 70.4795 40.3516C70.8604 39.8633 71.3649 39.6191 71.9932 39.6191C72.6377 39.6191 73.1406 39.847 73.502 40.3027L73.5459 39.7168H74.3711V44.873C74.3711 45.5566 74.1676 46.0954 73.7607 46.4893C73.3571 46.8831 72.8135 47.0801 72.1299 47.0801C71.749 47.0801 71.3763 46.9987 71.0117 46.8359C70.6471 46.6732 70.3688 46.4502 70.1768 46.167L70.6455 45.625C71.0329 46.1035 71.5065 46.3428 72.0664 46.3428C72.5059 46.3428 72.8477 46.2191 73.0918 45.9717C73.3392 45.7243 73.4629 45.376 73.4629 44.9268V44.4727C73.1016 44.8893 72.6084 45.0977 71.9834 45.0977C71.3649 45.0977 70.8636 44.8486 70.4795 44.3506C70.0986 43.8525 69.9082 43.1738 69.9082 42.3145ZM70.8164 42.417C70.8164 43.0127 70.9385 43.4814 71.1826 43.8232C71.4268 44.1618 71.7686 44.3311 72.208 44.3311C72.7777 44.3311 73.196 44.0723 73.4629 43.5547V41.1426C73.1862 40.638 72.7712 40.3857 72.2178 40.3857C71.7783 40.3857 71.4349 40.5566 71.1875 40.8984C70.9401 41.2402 70.8164 41.7464 70.8164 42.417ZM81.0947 45H80.1865V38.9795L78.3652 39.6484V38.8281L80.9531 37.8564H81.0947V45ZM88.3994 45H83.7412V44.3506L86.2021 41.6162C86.5667 41.2028 86.8174 40.8675 86.9541 40.6104C87.0941 40.3499 87.1641 40.0814 87.1641 39.8047C87.1641 39.4336 87.0518 39.1292 86.8271 38.8916C86.6025 38.654 86.3031 38.5352 85.9287 38.5352C85.4795 38.5352 85.1296 38.6637 84.8789 38.9209C84.6315 39.1748 84.5078 39.5296 84.5078 39.9854H83.6045C83.6045 39.3311 83.8145 38.8021 84.2344 38.3984C84.6576 37.9948 85.2223 37.793 85.9287 37.793C86.5895 37.793 87.112 37.9671 87.4961 38.3154C87.8802 38.6605 88.0723 39.1211 88.0723 39.6973C88.0723 40.3971 87.6263 41.2305 86.7344 42.1973L84.8301 44.2627H88.3994V45ZM90.6699 41.0059H91.3486C91.7751 40.9993 92.1104 40.887 92.3545 40.6689C92.5986 40.4508 92.7207 40.1562 92.7207 39.7852C92.7207 38.9518 92.3057 38.5352 91.4756 38.5352C91.085 38.5352 90.7725 38.6475 90.5381 38.8721C90.307 39.0934 90.1914 39.388 90.1914 39.7559H89.2881C89.2881 39.1927 89.4932 38.7256 89.9033 38.3545C90.3167 37.9801 90.8408 37.793 91.4756 37.793C92.1462 37.793 92.6719 37.9704 93.0527 38.3252C93.4336 38.68 93.624 39.1732 93.624 39.8047C93.624 40.1139 93.5231 40.4134 93.3213 40.7031C93.1227 40.9928 92.8509 41.2093 92.5059 41.3525C92.8965 41.4762 93.1976 41.6813 93.4092 41.9678C93.624 42.2542 93.7314 42.6042 93.7314 43.0176C93.7314 43.6556 93.5231 44.1618 93.1064 44.5361C92.6898 44.9105 92.1478 45.0977 91.4805 45.0977C90.8132 45.0977 90.2695 44.917 89.8496 44.5557C89.4329 44.1943 89.2246 43.7174 89.2246 43.125H90.1328C90.1328 43.4993 90.2549 43.7988 90.499 44.0234C90.7432 44.248 91.0703 44.3604 91.4805 44.3604C91.9167 44.3604 92.2503 44.2464 92.4814 44.0186C92.7126 43.7907 92.8281 43.4635 92.8281 43.0371C92.8281 42.6237 92.7012 42.3063 92.4473 42.085C92.1934 41.8636 91.8271 41.7497 91.3486 41.7432H90.6699V41.0059ZM98.7852 42.6123H99.7715V43.3496H98.7852V45H97.877V43.3496H94.6396V42.8174L97.8232 37.8906H98.7852V42.6123ZM95.665 42.6123H97.877V39.126L97.7695 39.3213L95.665 42.6123ZM110.24 44.3604C110.562 44.3604 110.844 44.2627 111.085 44.0674C111.326 43.8721 111.459 43.6279 111.485 43.335H112.34C112.324 43.6377 112.219 43.9258 112.027 44.1992C111.835 44.4727 111.578 44.6908 111.256 44.8535C110.937 45.0163 110.598 45.0977 110.24 45.0977C109.521 45.0977 108.948 44.8584 108.521 44.3799C108.098 43.8981 107.887 43.2406 107.887 42.4072V42.2559C107.887 41.7415 107.981 41.2842 108.17 40.8838C108.359 40.4834 108.629 40.1725 108.98 39.9512C109.335 39.7298 109.754 39.6191 110.235 39.6191C110.828 39.6191 111.319 39.7965 111.71 40.1514C112.104 40.5062 112.314 40.9668 112.34 41.5332H111.485C111.459 41.1914 111.329 40.9115 111.095 40.6934C110.864 40.472 110.577 40.3613 110.235 40.3613C109.776 40.3613 109.42 40.5273 109.166 40.8594C108.915 41.1882 108.79 41.665 108.79 42.29V42.4609C108.79 43.0697 108.915 43.5384 109.166 43.8672C109.417 44.196 109.775 44.3604 110.24 44.3604ZM113.536 45.6104H112.76L115.729 37.8906H116.5L113.536 45.6104ZM119.596 44.3604C119.918 44.3604 120.2 44.2627 120.44 44.0674C120.681 43.8721 120.815 43.6279 120.841 43.335H121.695C121.679 43.6377 121.575 43.9258 121.383 44.1992C121.191 44.4727 120.934 44.6908 120.611 44.8535C120.292 45.0163 119.954 45.0977 119.596 45.0977C118.876 45.0977 118.303 44.8584 117.877 44.3799C117.454 43.8981 117.242 43.2406 117.242 42.4072V42.2559C117.242 41.7415 117.337 41.2842 117.525 40.8838C117.714 40.4834 117.984 40.1725 118.336 39.9512C118.691 39.7298 119.109 39.6191 119.591 39.6191C120.183 39.6191 120.675 39.7965 121.065 40.1514C121.459 40.5062 121.669 40.9668 121.695 41.5332H120.841C120.815 41.1914 120.685 40.9115 120.45 40.6934C120.219 40.472 119.933 40.3613 119.591 40.3613C119.132 40.3613 118.775 40.5273 118.521 40.8594C118.271 41.1882 118.146 41.665 118.146 42.29V42.4609C118.146 43.0697 118.271 43.5384 118.521 43.8672C118.772 44.196 119.13 44.3604 119.596 44.3604ZM128.067 45H127.159V38.9795L125.338 39.6484V38.8281L127.926 37.8564H128.067V45ZM135.372 45H130.714V44.3506L133.175 41.6162C133.539 41.2028 133.79 40.8675 133.927 40.6104C134.067 40.3499 134.137 40.0814 134.137 39.8047C134.137 39.4336 134.024 39.1292 133.8 38.8916C133.575 38.654 133.276 38.5352 132.901 38.5352C132.452 38.5352 132.102 38.6637 131.852 38.9209C131.604 39.1748 131.48 39.5296 131.48 39.9854H130.577C130.577 39.3311 130.787 38.8021 131.207 38.3984C131.63 37.9948 132.195 37.793 132.901 37.793C133.562 37.793 134.085 37.9671 134.469 38.3154C134.853 38.6605 135.045 39.1211 135.045 39.6973C135.045 40.3971 134.599 41.2305 133.707 42.1973L131.803 44.2627H135.372V45ZM137.643 41.0059H138.321C138.748 40.9993 139.083 40.887 139.327 40.6689C139.571 40.4508 139.693 40.1562 139.693 39.7852C139.693 38.9518 139.278 38.5352 138.448 38.5352C138.058 38.5352 137.745 38.6475 137.511 38.8721C137.28 39.0934 137.164 39.388 137.164 39.7559H136.261C136.261 39.1927 136.466 38.7256 136.876 38.3545C137.289 37.9801 137.813 37.793 138.448 37.793C139.119 37.793 139.645 37.9704 140.025 38.3252C140.406 38.68 140.597 39.1732 140.597 39.8047C140.597 40.1139 140.496 40.4134 140.294 40.7031C140.095 40.9928 139.824 41.2093 139.479 41.3525C139.869 41.4762 140.17 41.6813 140.382 41.9678C140.597 42.2542 140.704 42.6042 140.704 43.0176C140.704 43.6556 140.496 44.1618 140.079 44.5361C139.662 44.9105 139.12 45.0977 138.453 45.0977C137.786 45.0977 137.242 44.917 136.822 44.5557C136.406 44.1943 136.197 43.7174 136.197 43.125H137.105C137.105 43.4993 137.228 43.7988 137.472 44.0234C137.716 44.248 138.043 44.3604 138.453 44.3604C138.889 44.3604 139.223 44.2464 139.454 44.0186C139.685 43.7907 139.801 43.4635 139.801 43.0371C139.801 42.6237 139.674 42.3063 139.42 42.085C139.166 41.8636 138.8 41.7497 138.321 41.7432H137.643V41.0059ZM145.758 42.6123H146.744V43.3496H145.758V45H144.85V43.3496H141.612V42.8174L144.796 37.8906H145.758V42.6123ZM142.638 42.6123H144.85V39.126L144.742 39.3213L142.638 42.6123ZM147.975 41.4355L148.336 37.8906H151.979V38.7256H149.103L148.888 40.6641C149.236 40.459 149.632 40.3564 150.074 40.3564C150.722 40.3564 151.236 40.5713 151.617 41.001C151.998 41.4274 152.188 42.0052 152.188 42.7344C152.188 43.4668 151.99 44.0446 151.593 44.4678C151.199 44.8877 150.647 45.0977 149.938 45.0977C149.309 45.0977 148.797 44.9235 148.399 44.5752C148.002 44.2269 147.776 43.7451 147.721 43.1299H148.575C148.631 43.5368 148.775 43.8444 149.01 44.0527C149.244 44.2578 149.553 44.3604 149.938 44.3604C150.357 44.3604 150.686 44.2171 150.924 43.9307C151.165 43.6442 151.285 43.2487 151.285 42.7441C151.285 42.2689 151.155 41.888 150.895 41.6016C150.637 41.3118 150.294 41.167 149.864 41.167C149.47 41.167 149.161 41.2533 148.937 41.4258L148.697 41.6211L147.975 41.4355ZM155.147 42.3486H152.765V41.6113H155.147V42.3486ZM160.396 41.9678C160.396 43.0257 160.216 43.8118 159.854 44.3262C159.493 44.8405 158.928 45.0977 158.16 45.0977C157.402 45.0977 156.84 44.847 156.476 44.3457C156.111 43.8411 155.922 43.0892 155.909 42.0898V40.8838C155.909 39.8389 156.09 39.0625 156.451 38.5547C156.812 38.0469 157.379 37.793 158.15 37.793C158.915 37.793 159.479 38.0387 159.84 38.5303C160.201 39.0186 160.387 39.7738 160.396 40.7959V41.9678ZM159.493 40.7324C159.493 39.9674 159.386 39.4108 159.171 39.0625C158.956 38.7109 158.616 38.5352 158.15 38.5352C157.688 38.5352 157.351 38.7093 157.14 39.0576C156.928 39.4059 156.819 39.9414 156.812 40.6641V42.1094C156.812 42.8776 156.923 43.4456 157.145 43.8135C157.369 44.1781 157.708 44.3604 158.16 44.3604C158.606 44.3604 158.937 44.1878 159.151 43.8428C159.369 43.4977 159.483 42.9541 159.493 42.2119V40.7324Z" fill="#645039"/>
<defs>
<linearGradient id="paint0_linear_318:110" x1="30.3333" y1="1.37106e-06" x2="67.2578" y2="155.608" gradientUnits="userSpaceOnUse">
<stop stop-color="white"/>
<stop offset="1" stop-color="#FFECC6"/>
</linearGradient>
</defs>
</svg>
