<svg width="208" height="66" viewBox="0 0 208 66" fill="none" xmlns="http://www.w3.org/2000/svg">
<rect width="208" height="66" rx="4" fill="url(#paint0_linear_110:221)"/>
<circle cx="32.5" cy="32.5" r="17.5" fill="#FFE8D7"/>
<path d="M29.054 37.182C28.1113 37.182 27.2947 36.9813 26.604 36.58C25.9133 36.1693 25.386 35.6 25.022 34.872C24.658 34.144 24.476 33.304 24.476 32.352C24.476 31.344 24.672 30.4667 25.064 29.72C25.4653 28.964 26.0113 28.3853 26.702 27.984C27.402 27.5733 28.1953 27.368 29.082 27.368C29.502 27.368 29.9127 27.4193 30.314 27.522C30.7247 27.6247 31.084 27.7647 31.392 27.942V29.566C31.084 29.3607 30.7433 29.202 30.37 29.09C29.9967 28.9687 29.628 28.908 29.264 28.908C28.3493 28.908 27.626 29.2113 27.094 29.818C26.5713 30.4153 26.31 31.232 26.31 32.268C26.31 33.2947 26.5807 34.116 27.122 34.732C27.6633 35.3387 28.382 35.642 29.278 35.642C30.0993 35.642 30.86 35.3947 31.56 34.9V36.524C30.832 36.9627 29.9967 37.182 29.054 37.182ZM35.7198 27.55H37.6658L41.0398 37H39.2058L38.4778 34.816H34.8518L34.1378 37H32.3458L35.7198 27.55ZM35.2998 33.43H38.0298L36.6578 29.272L35.2998 33.43Z" fill="#EC7000"/>
<path d="M69.054 29.182C68.1113 29.182 67.2947 28.9813 66.604 28.58C65.9133 28.1693 65.386 27.6 65.022 26.872C64.658 26.144 64.476 25.304 64.476 24.352C64.476 23.344 64.672 22.4667 65.064 21.72C65.4653 20.964 66.0113 20.3853 66.702 19.984C67.402 19.5733 68.1953 19.368 69.082 19.368C69.502 19.368 69.9127 19.4193 70.314 19.522C70.7247 19.6247 71.084 19.7647 71.392 19.942V21.566C71.084 21.3607 70.7433 21.202 70.37 21.09C69.9967 20.9687 69.628 20.908 69.264 20.908C68.3493 20.908 67.626 21.2113 67.094 21.818C66.5713 22.4153 66.31 23.232 66.31 24.268C66.31 25.2947 66.5807 26.116 67.122 26.732C67.6633 27.3387 68.382 27.642 69.278 27.642C70.0993 27.642 70.86 27.3947 71.56 26.9V28.524C70.832 28.9627 69.9967 29.182 69.054 29.182ZM74.9078 29.182C74.1984 29.182 73.6291 28.9907 73.1998 28.608C72.7704 28.2253 72.5557 27.712 72.5557 27.068C72.5557 26.2467 72.8824 25.612 73.5358 25.164C74.1891 24.7067 75.1178 24.478 76.3218 24.478C76.4244 24.478 76.5271 24.478 76.6298 24.478C76.7324 24.478 76.8304 24.4827 76.9238 24.492C76.8958 23.9693 76.7464 23.582 76.4758 23.33C76.2051 23.078 75.7991 22.952 75.2578 22.952C74.5671 22.952 73.8764 23.148 73.1858 23.54V22.14C73.9418 21.748 74.7211 21.552 75.5238 21.552C76.5038 21.552 77.2598 21.8227 77.7918 22.364C78.3238 22.896 78.5898 23.6613 78.5898 24.66V29H77.1478L77.0498 28.16C76.8258 28.4773 76.5224 28.7293 76.1398 28.916C75.7664 29.0933 75.3558 29.182 74.9078 29.182ZM75.3838 27.95C75.8131 27.95 76.1771 27.796 76.4758 27.488C76.7838 27.18 76.9378 26.8067 76.9378 26.368V25.654C76.8444 25.654 76.7464 25.654 76.6438 25.654C76.5504 25.6447 76.4524 25.64 76.3498 25.64C75.6591 25.64 75.1271 25.7473 74.7538 25.962C74.3898 26.1673 74.2078 26.4707 74.2078 26.872C74.2078 27.1987 74.3151 27.46 74.5298 27.656C74.7444 27.852 75.0291 27.95 75.3838 27.95ZM80.0965 21.734H81.6225L81.7345 22.784C81.9118 22.4107 82.1498 22.1213 82.4485 21.916C82.7565 21.7013 83.0972 21.594 83.4705 21.594C83.6945 21.594 83.8765 21.622 84.0165 21.678V23.274C83.8485 23.2087 83.6432 23.176 83.4005 23.176C82.9245 23.176 82.5418 23.3533 82.2525 23.708C81.9725 24.0533 81.8325 24.5247 81.8325 25.122V29H80.0965V21.734ZM88.0163 29.182C87.3163 29.182 86.705 29.0233 86.1823 28.706C85.669 28.3793 85.2723 27.9313 84.9923 27.362C84.7217 26.7833 84.5863 26.1207 84.5863 25.374C84.5863 24.5993 84.731 23.9227 85.0203 23.344C85.319 22.7653 85.725 22.322 86.2383 22.014C86.761 21.706 87.3537 21.552 88.0163 21.552C88.7163 21.552 89.323 21.7153 89.8363 22.042C90.359 22.3593 90.7557 22.8073 91.0263 23.386C91.3063 23.9553 91.4463 24.6133 91.4463 25.36C91.4463 26.1347 91.297 26.8113 90.9983 27.39C90.709 27.9687 90.303 28.412 89.7803 28.72C89.267 29.028 88.679 29.182 88.0163 29.182ZM88.0163 27.754C88.539 27.754 88.9497 27.544 89.2483 27.124C89.547 26.704 89.6963 26.1207 89.6963 25.374C89.6963 24.6367 89.547 24.0533 89.2483 23.624C88.9497 23.1947 88.539 22.98 88.0163 22.98C87.4937 22.98 87.083 23.19 86.7843 23.61C86.4857 24.03 86.3363 24.6133 86.3363 25.36C86.3363 26.0973 86.4857 26.6807 86.7843 27.11C87.083 27.5393 87.4937 27.754 88.0163 27.754ZM92.661 18.57H94.397V29H92.661V18.57ZM95.9695 21.734H97.7055V29H95.9695V21.734ZM96.8375 20.642C96.5389 20.642 96.2869 20.544 96.0815 20.348C95.8855 20.152 95.7875 19.9093 95.7875 19.62C95.7875 19.3307 95.8855 19.088 96.0815 18.892C96.2869 18.696 96.5389 18.598 96.8375 18.598C97.1362 18.598 97.3835 18.696 97.5795 18.892C97.7849 19.088 97.8875 19.3307 97.8875 19.62C97.8875 19.9093 97.7849 20.152 97.5795 20.348C97.3835 20.544 97.1362 20.642 96.8375 20.642ZM99.2781 21.734H100.804L100.902 22.616C101.145 22.2707 101.448 22.0093 101.812 21.832C102.185 21.6453 102.596 21.552 103.044 21.552C103.809 21.552 104.421 21.8133 104.878 22.336C105.335 22.8587 105.564 23.554 105.564 24.422V29H103.828V24.688C103.828 24.1467 103.711 23.7313 103.478 23.442C103.245 23.1527 102.909 23.008 102.47 23.008C102.031 23.008 101.677 23.162 101.406 23.47C101.145 23.7687 101.014 24.1747 101.014 24.688V29H99.2781V21.734ZM110.361 29.182C109.222 29.182 108.331 28.8413 107.687 28.16C107.043 27.4787 106.721 26.5407 106.721 25.346C106.721 24.5807 106.861 23.9133 107.141 23.344C107.43 22.7653 107.827 22.322 108.331 22.014C108.835 21.706 109.409 21.552 110.053 21.552C110.996 21.552 111.738 21.8693 112.279 22.504C112.82 23.1387 113.091 24.016 113.091 25.136V25.92H108.387C108.48 26.536 108.714 27.0027 109.087 27.32C109.46 27.6373 109.96 27.796 110.585 27.796C111.276 27.796 111.962 27.6187 112.643 27.264V28.65C111.99 29.0047 111.229 29.182 110.361 29.182ZM109.983 22.882C109.526 22.882 109.157 23.0407 108.877 23.358C108.606 23.666 108.438 24.1187 108.373 24.716H111.481C111.462 24.1373 111.322 23.6893 111.061 23.372C110.8 23.0453 110.44 22.882 109.983 22.882ZM119.511 19.55H121.457L124.831 29H122.997L122.269 26.816H118.643L117.929 29H116.137L119.511 19.55ZM119.091 25.43H121.821L120.449 21.272L119.091 25.43ZM125.87 21.734H127.396L127.508 22.784C127.685 22.4107 127.923 22.1213 128.222 21.916C128.53 21.7013 128.871 21.594 129.244 21.594C129.468 21.594 129.65 21.622 129.79 21.678V23.274C129.622 23.2087 129.417 23.176 129.174 23.176C128.698 23.176 128.315 23.3533 128.026 23.708C127.746 24.0533 127.606 24.5247 127.606 25.122V29H125.87V21.734ZM132.781 29.182C132.071 29.182 131.502 28.9907 131.073 28.608C130.643 28.2253 130.429 27.712 130.429 27.068C130.429 26.2467 130.755 25.612 131.409 25.164C132.062 24.7067 132.991 24.478 134.195 24.478C134.297 24.478 134.4 24.478 134.503 24.478C134.605 24.478 134.703 24.4827 134.797 24.492C134.769 23.9693 134.619 23.582 134.349 23.33C134.078 23.078 133.672 22.952 133.131 22.952C132.44 22.952 131.749 23.148 131.059 23.54V22.14C131.815 21.748 132.594 21.552 133.397 21.552C134.377 21.552 135.133 21.8227 135.665 22.364C136.197 22.896 136.463 23.6613 136.463 24.66V29H135.021L134.923 28.16C134.699 28.4773 134.395 28.7293 134.013 28.916C133.639 29.0933 133.229 29.182 132.781 29.182ZM133.257 27.95C133.686 27.95 134.05 27.796 134.349 27.488C134.657 27.18 134.811 26.8067 134.811 26.368V25.654C134.717 25.654 134.619 25.654 134.517 25.654C134.423 25.6447 134.325 25.64 134.223 25.64C133.532 25.64 133 25.7473 132.627 25.962C132.263 26.1673 132.081 26.4707 132.081 26.872C132.081 27.1987 132.188 27.46 132.403 27.656C132.617 27.852 132.902 27.95 133.257 27.95ZM140.227 29.182C139.48 29.182 138.883 28.9253 138.435 28.412C137.996 27.8893 137.777 27.194 137.777 26.326V21.734H139.513V26.046C139.513 26.5967 139.625 27.0213 139.849 27.32C140.082 27.6093 140.409 27.754 140.829 27.754C141.249 27.754 141.585 27.6 141.837 27.292C142.098 26.984 142.229 26.5733 142.229 26.06V21.734H143.965V29H142.453L142.355 28.146C142.121 28.482 141.818 28.7387 141.445 28.916C141.081 29.0933 140.675 29.182 140.227 29.182ZM141.487 20.754H139.961L141.459 18.57H143.349L141.487 20.754ZM144.83 31.842C144.503 31.842 144.195 31.786 143.906 31.674V30.344C144.13 30.4187 144.34 30.456 144.536 30.456C145.199 30.456 145.53 30.008 145.53 29.112V21.734H147.266V29.14C147.266 30.008 147.056 30.6753 146.636 31.142C146.216 31.6087 145.614 31.842 144.83 31.842ZM146.398 20.642C146.099 20.642 145.847 20.544 145.642 20.348C145.446 20.152 145.348 19.9093 145.348 19.62C145.348 19.3307 145.446 19.088 145.642 18.892C145.847 18.696 146.099 18.598 146.398 18.598C146.697 18.598 146.944 18.696 147.14 18.892C147.345 19.088 147.448 19.3307 147.448 19.62C147.448 19.9093 147.345 20.152 147.14 20.348C146.944 20.544 146.697 20.642 146.398 20.642ZM151.919 29.182C151.219 29.182 150.607 29.0233 150.085 28.706C149.571 28.3793 149.175 27.9313 148.895 27.362C148.624 26.7833 148.489 26.1207 148.489 25.374C148.489 24.5993 148.633 23.9227 148.923 23.344C149.221 22.7653 149.627 22.322 150.141 22.014C150.663 21.706 151.256 21.552 151.919 21.552C152.619 21.552 153.225 21.7153 153.739 22.042C154.261 22.3593 154.658 22.8073 154.929 23.386C155.209 23.9553 155.349 24.6133 155.349 25.36C155.349 26.1347 155.199 26.8113 154.901 27.39C154.611 27.9687 154.205 28.412 153.683 28.72C153.169 29.028 152.581 29.182 151.919 29.182ZM151.919 27.754C152.441 27.754 152.852 27.544 153.151 27.124C153.449 26.704 153.599 26.1207 153.599 25.374C153.599 24.6367 153.449 24.0533 153.151 23.624C152.852 23.1947 152.441 22.98 151.919 22.98C151.396 22.98 150.985 23.19 150.687 23.61C150.388 24.03 150.239 24.6133 150.239 25.36C150.239 26.0973 150.388 26.6807 150.687 27.11C150.985 27.5393 151.396 27.754 151.919 27.754Z" fill="#645039"/>
<path opacity="0.7" d="M66.04 45.13C65.54 45.13 65.14 44.9933 64.84 44.72C64.5467 44.4467 64.4 44.0867 64.4 43.64C64.4 43.0667 64.6333 42.6267 65.1 42.32C65.5733 42.0067 66.2533 41.85 67.14 41.85C67.2133 41.85 67.2833 41.85 67.35 41.85C67.4233 41.85 67.4967 41.8533 67.57 41.86C67.5633 41.38 67.4567 41.0267 67.25 40.8C67.0433 40.5733 66.7267 40.46 66.3 40.46C65.7867 40.46 65.2933 40.6067 64.82 40.9V40.16C65.3267 39.8667 65.8567 39.72 66.41 39.72C67.0567 39.72 67.5533 39.9067 67.9 40.28C68.2533 40.6467 68.43 41.1733 68.43 41.86V45H67.68L67.63 44.32C67.47 44.5733 67.2467 44.7733 66.96 44.92C66.68 45.06 66.3733 45.13 66.04 45.13ZM66.24 44.46C66.4867 44.46 66.7133 44.3967 66.92 44.27C67.1267 44.1433 67.2867 43.98 67.4 43.78C67.5133 43.58 67.57 43.3633 67.57 43.13V42.51C67.49 42.5033 67.41 42.5 67.33 42.5C67.2567 42.5 67.1833 42.5 67.11 42.5C66.5033 42.5 66.04 42.59 65.72 42.77C65.4067 42.95 65.25 43.21 65.25 43.55C65.25 43.8233 65.34 44.0433 65.52 44.21C65.7067 44.3767 65.9467 44.46 66.24 44.46ZM71.4895 47.03C71.1762 47.03 70.8762 46.9967 70.5895 46.93C70.3095 46.8633 70.0695 46.7667 69.8695 46.64V45.85C70.0762 45.9833 70.3162 46.0867 70.5895 46.16C70.8629 46.24 71.1395 46.28 71.4195 46.28C72.4929 46.28 73.0295 45.71 73.0295 44.57V44.2C72.8562 44.4733 72.6329 44.6867 72.3595 44.84C72.0862 44.9867 71.7829 45.06 71.4495 45.06C71.0295 45.06 70.6595 44.9467 70.3395 44.72C70.0262 44.4933 69.7829 44.1833 69.6095 43.79C69.4429 43.3967 69.3595 42.9433 69.3595 42.43C69.3595 41.6033 69.5562 40.9467 69.9495 40.46C70.3429 39.9667 70.8695 39.72 71.5295 39.72C71.8695 39.72 72.1729 39.8 72.4395 39.96C72.7129 40.1133 72.9329 40.3367 73.0995 40.63L73.1595 39.85H73.9095V44.49C73.9095 45.3167 73.7029 45.9467 73.2895 46.38C72.8829 46.8133 72.2829 47.03 71.4895 47.03ZM71.6795 44.34C72.0929 44.34 72.4262 44.1667 72.6795 43.82C72.9329 43.4667 73.0595 43 73.0595 42.42C73.0595 41.8267 72.9329 41.3533 72.6795 41C72.4262 40.64 72.0895 40.46 71.6695 40.46C71.2362 40.46 70.8895 40.6367 70.6295 40.99C70.3762 41.3433 70.2495 41.8167 70.2495 42.41C70.2495 43.0033 70.3795 43.4733 70.6395 43.82C70.8995 44.1667 71.2462 44.34 71.6795 44.34ZM78.2863 45V39.14L76.5663 40.15V39.31L78.3563 38.25H79.1563V45H78.2863ZM80.314 44.32L82.264 42.26C82.684 41.8133 82.9807 41.4333 83.154 41.12C83.3273 40.8 83.414 40.4667 83.414 40.12C83.414 39.74 83.294 39.44 83.054 39.22C82.8207 38.9933 82.5073 38.88 82.114 38.88C81.5473 38.88 81.0273 39.05 80.554 39.39V38.61C80.774 38.45 81.0307 38.33 81.324 38.25C81.6173 38.1633 81.924 38.12 82.244 38.12C82.8573 38.12 83.354 38.2967 83.734 38.65C84.1207 39.0033 84.314 39.4633 84.314 40.03C84.314 40.45 84.2073 40.8633 83.994 41.27C83.7873 41.6767 83.4373 42.14 82.944 42.66L81.444 44.24H84.474V45H80.314V44.32ZM86.9598 45.13C86.6065 45.13 86.2865 45.0933 85.9998 45.02C85.7132 44.9533 85.4198 44.8367 85.1198 44.67V43.82C85.6465 44.1867 86.2232 44.37 86.8498 44.37C87.3298 44.37 87.7065 44.26 87.9798 44.04C88.2532 43.8133 88.3898 43.5 88.3898 43.1C88.3898 42.6933 88.2598 42.3833 87.9998 42.17C87.7398 41.9567 87.3598 41.85 86.8598 41.85H86.2098V41.12H86.8598C87.2865 41.12 87.6165 41.0167 87.8498 40.81C88.0898 40.6033 88.2098 40.3133 88.2098 39.94C88.2098 39.6 88.0932 39.3367 87.8598 39.15C87.6265 38.9567 87.3032 38.86 86.8898 38.86C86.4032 38.86 85.9065 39.0133 85.3998 39.32V38.57C85.8598 38.27 86.4065 38.12 87.0398 38.12C87.6665 38.12 88.1665 38.28 88.5398 38.6C88.9132 38.92 89.0998 39.35 89.0998 39.89C89.0998 40.2233 89.0065 40.53 88.8198 40.81C88.6398 41.0833 88.3865 41.2933 88.0598 41.44C88.4465 41.5667 88.7465 41.78 88.9598 42.08C89.1798 42.3733 89.2898 42.7233 89.2898 43.13C89.2898 43.73 89.0765 44.2133 88.6498 44.58C88.2232 44.9467 87.6598 45.13 86.9598 45.13ZM92.9164 45V43.43H89.8464V42.7L92.8464 38.25H93.7564V42.71H94.6364V43.43H93.7564V45H92.9164ZM92.9164 42.71V39.33L90.6464 42.71H92.9164ZM102.737 45.13C101.997 45.13 101.407 44.8867 100.967 44.4C100.533 43.9133 100.317 43.2567 100.317 42.43C100.317 41.8833 100.42 41.4067 100.627 41C100.84 40.5867 101.13 40.27 101.497 40.05C101.87 39.83 102.293 39.72 102.767 39.72C103.28 39.72 103.69 39.8167 103.997 40.01V40.79C103.703 40.5767 103.32 40.47 102.847 40.47C102.34 40.47 101.94 40.6433 101.647 40.99C101.353 41.3367 101.207 41.8133 101.207 42.42C101.207 43.0133 101.353 43.49 101.647 43.85C101.947 44.2033 102.35 44.38 102.857 44.38C103.317 44.38 103.723 44.2633 104.077 44.03V44.8C103.697 45.02 103.25 45.13 102.737 45.13ZM104.793 45.95L107.263 38.25H108.063L105.593 45.95H104.793ZM110.559 45.13C109.819 45.13 109.229 44.8867 108.789 44.4C108.355 43.9133 108.139 43.2567 108.139 42.43C108.139 41.8833 108.242 41.4067 108.449 41C108.662 40.5867 108.952 40.27 109.319 40.05C109.692 39.83 110.115 39.72 110.589 39.72C111.102 39.72 111.512 39.8167 111.819 40.01V40.79C111.525 40.5767 111.142 40.47 110.669 40.47C110.162 40.47 109.762 40.6433 109.469 40.99C109.175 41.3367 109.029 41.8133 109.029 42.42C109.029 43.0133 109.175 43.49 109.469 43.85C109.769 44.2033 110.172 44.38 110.679 44.38C111.139 44.38 111.545 44.2633 111.899 44.03V44.8C111.519 45.02 111.072 45.13 110.559 45.13ZM116.079 45V39.14L114.359 40.15V39.31L116.149 38.25H116.949V45H116.079ZM118.107 44.32L120.057 42.26C120.477 41.8133 120.774 41.4333 120.947 41.12C121.12 40.8 121.207 40.4667 121.207 40.12C121.207 39.74 121.087 39.44 120.847 39.22C120.614 38.9933 120.3 38.88 119.907 38.88C119.34 38.88 118.82 39.05 118.347 39.39V38.61C118.567 38.45 118.824 38.33 119.117 38.25C119.41 38.1633 119.717 38.12 120.037 38.12C120.65 38.12 121.147 38.2967 121.527 38.65C121.914 39.0033 122.107 39.4633 122.107 40.03C122.107 40.45 122 40.8633 121.787 41.27C121.58 41.6767 121.23 42.14 120.737 42.66L119.237 44.24H122.267V45H118.107V44.32ZM124.753 45.13C124.399 45.13 124.079 45.0933 123.793 45.02C123.506 44.9533 123.213 44.8367 122.913 44.67V43.82C123.439 44.1867 124.016 44.37 124.643 44.37C125.123 44.37 125.499 44.26 125.773 44.04C126.046 43.8133 126.183 43.5 126.183 43.1C126.183 42.6933 126.053 42.3833 125.793 42.17C125.533 41.9567 125.153 41.85 124.653 41.85H124.003V41.12H124.653C125.079 41.12 125.409 41.0167 125.643 40.81C125.883 40.6033 126.003 40.3133 126.003 39.94C126.003 39.6 125.886 39.3367 125.653 39.15C125.419 38.9567 125.096 38.86 124.683 38.86C124.196 38.86 123.699 39.0133 123.193 39.32V38.57C123.653 38.27 124.199 38.12 124.833 38.12C125.459 38.12 125.959 38.28 126.333 38.6C126.706 38.92 126.893 39.35 126.893 39.89C126.893 40.2233 126.799 40.53 126.613 40.81C126.433 41.0833 126.179 41.2933 125.853 41.44C126.239 41.5667 126.539 41.78 126.753 42.08C126.973 42.3733 127.083 42.7233 127.083 43.13C127.083 43.73 126.869 44.2133 126.443 44.58C126.016 44.9467 125.453 45.13 124.753 45.13ZM130.709 45V43.43H127.639V42.7L130.639 38.25H131.549V42.71H132.429V43.43H131.549V45H130.709ZM130.709 42.71V39.33L128.439 42.71H130.709ZM134.702 45.13C134.062 45.13 133.485 44.98 132.972 44.68V43.86C133.192 44.02 133.452 44.15 133.752 44.25C134.052 44.3433 134.339 44.39 134.612 44.39C135.105 44.39 135.489 44.2633 135.762 44.01C136.042 43.75 136.182 43.3967 136.182 42.95C136.182 42.51 136.032 42.17 135.732 41.93C135.439 41.6833 135.012 41.56 134.452 41.56C134.119 41.56 133.712 41.6067 133.232 41.7L133.692 38.25H136.832V39H134.362L134.102 40.95C134.309 40.9033 134.555 40.88 134.842 40.88C135.302 40.88 135.699 40.9667 136.032 41.14C136.365 41.3133 136.619 41.5533 136.792 41.86C136.972 42.1667 137.062 42.5233 137.062 42.93C137.062 43.5833 136.845 44.1133 136.412 44.52C135.979 44.9267 135.409 45.13 134.702 45.13ZM138.026 42.56V41.82H140.696V42.56H138.026ZM143.937 45.13C143.183 45.13 142.597 44.8267 142.177 44.22C141.763 43.6067 141.557 42.7433 141.557 41.63C141.557 40.5167 141.763 39.6533 142.177 39.04C142.59 38.4267 143.173 38.12 143.927 38.12C144.68 38.12 145.263 38.4267 145.677 39.04C146.097 39.6467 146.307 40.5067 146.307 41.62C146.307 42.7333 146.1 43.5967 145.687 44.21C145.273 44.8233 144.69 45.13 143.937 45.13ZM143.937 44.37C144.403 44.37 144.763 44.13 145.017 43.65C145.277 43.17 145.407 42.4933 145.407 41.62C145.407 40.74 145.28 40.0633 145.027 39.59C144.773 39.1167 144.407 38.88 143.927 38.88C143.46 38.88 143.097 39.12 142.837 39.6C142.583 40.08 142.457 40.7567 142.457 41.63C142.457 42.51 142.583 43.1867 142.837 43.66C143.097 44.1333 143.463 44.37 143.937 44.37Z" fill="#645039"/>
<defs>
<linearGradient id="paint0_linear_110:221" x1="30.3333" y1="1.37106e-06" x2="67.2578" y2="155.608" gradientUnits="userSpaceOnUse">
<stop stop-color="white"/>
<stop offset="1" stop-color="#FFECC6"/>
</linearGradient>
</defs>
</svg>
