<svg width="213" height="115" viewBox="0 0 213 115" fill="none" xmlns="http://www.w3.org/2000/svg">
<rect width="213" height="114.692" rx="4.09615" fill="url(#paint0_linear_110:220)"/>
<path d="M19.981 40.3365V23.7471H24.9456C26.9609 23.7471 28.5502 24.2059 29.7135 25.1234C30.8768 26.041 31.4584 27.278 31.4584 28.8345C31.4584 29.9487 31.1471 30.9236 30.5245 31.7592C29.9019 32.5784 29.0335 33.1847 27.9194 33.5779L32.589 40.3365H29.0499L24.9456 34.0694H23.0286V40.3365H19.981ZM23.0286 26.254V31.6117H24.9456C26.0269 31.6117 26.8626 31.3742 27.4524 30.899C28.0586 30.4075 28.3618 29.7357 28.3618 28.8837C28.3618 28.0317 28.0668 27.3845 27.477 26.9421C26.8871 26.4833 26.0515 26.254 24.9701 26.254H23.0286ZM38.6042 40.484C37.0968 40.3857 35.7615 40.0498 34.5981 39.4763V36.7483C36.1547 37.5348 37.6129 37.928 38.9728 37.928C39.9559 37.928 40.7096 37.7478 41.2339 37.3873C41.7746 37.0268 42.045 36.4943 42.045 35.7898C42.045 35.1672 41.7992 34.6593 41.3077 34.266C40.8325 33.8564 39.9805 33.4386 38.7516 33.0126C37.3426 32.5375 36.3103 31.9312 35.655 31.1939C35.016 30.4566 34.6965 29.5391 34.6965 28.4413C34.6965 27.3108 35.0405 26.3441 35.7287 25.5412C36.4332 24.722 37.3917 24.1649 38.6042 23.87V20.9208H40.9636V23.6488C42.1433 23.698 43.2083 23.9683 44.1586 24.4598V27.065C43.028 26.4588 41.8647 26.1557 40.6687 26.1557C39.7511 26.1557 39.0384 26.3359 38.5305 26.6963C38.0225 27.0404 37.7686 27.5402 37.7686 28.1955C37.7686 28.7526 37.9734 29.2032 38.383 29.5473C38.809 29.8913 39.5873 30.26 40.7178 30.6532C42.3071 31.2103 43.454 31.8739 44.1586 32.644C44.8631 33.3977 45.2154 34.3562 45.2154 35.5195C45.2154 36.7975 44.8385 37.8625 44.0848 38.7145C43.3312 39.5665 42.2907 40.1153 40.9636 40.3611V43.2858H38.6042V40.484ZM55.7464 40.3365V26.8438L51.6421 29.1786V26.3768L56.1396 23.7471H58.7939V40.3365H55.7464ZM63.8892 40.5332C63.3485 40.5332 62.898 40.3611 62.5375 40.017C62.1934 39.673 62.0214 39.2388 62.0214 38.7145C62.0214 38.1902 62.1934 37.756 62.5375 37.4119C62.898 37.0514 63.3485 36.8712 63.8892 36.8712C64.4135 36.8712 64.8559 37.0514 65.2164 37.4119C65.5768 37.756 65.7571 38.1902 65.7571 38.7145C65.7571 39.2388 65.5768 39.673 65.2164 40.017C64.8559 40.3611 64.4135 40.5332 63.8892 40.5332ZM72.1002 40.656C70.3962 40.656 68.8725 40.2956 67.5289 39.5747V36.8958C68.9052 37.7314 70.2897 38.1492 71.6824 38.1492C72.7474 38.1492 73.5667 37.9198 74.1401 37.461C74.73 37.0023 75.0249 36.3469 75.0249 35.4949C75.0249 33.8073 73.9353 32.9635 71.7562 32.9635H70.1341V30.5303H71.7316C72.6655 30.5303 73.3782 30.3255 73.8698 29.9159C74.3613 29.4899 74.6071 28.8919 74.6071 28.1218C74.6071 27.4009 74.3613 26.8602 73.8698 26.4997C73.3782 26.1229 72.6737 25.9345 71.7562 25.9345C70.4945 25.9345 69.2903 26.2785 68.1433 26.9667V24.509C69.3558 23.7881 70.7649 23.4276 72.3706 23.4276C73.9927 23.4276 75.2788 23.829 76.2292 24.6319C77.1958 25.4183 77.6792 26.4752 77.6792 27.8023C77.6792 28.6215 77.458 29.367 77.0156 30.0388C76.5896 30.7106 75.9916 31.2267 75.2215 31.5872C76.139 31.8985 76.8518 32.4146 77.3597 33.1355C77.884 33.8564 78.1462 34.7084 78.1462 35.6915C78.1462 37.1989 77.5973 38.4032 76.4995 39.3043C75.4017 40.2055 73.9353 40.656 72.1002 40.656ZM85.6279 40.656C83.7109 40.656 82.2199 39.9105 81.1549 38.4195C80.0899 36.9122 79.5574 34.7903 79.5574 32.0541C79.5574 29.3343 80.0899 27.2207 81.1549 25.7133C82.2199 24.1895 83.7109 23.4276 85.6279 23.4276C87.5613 23.4276 89.0605 24.1813 90.1255 25.6887C91.1905 27.1797 91.723 29.2933 91.723 32.0295C91.723 34.7658 91.1905 36.8876 90.1255 38.395C89.0605 39.9023 87.5613 40.656 85.6279 40.656ZM85.6279 38.1C86.611 38.1 87.3565 37.5921 87.8644 36.5763C88.3723 35.544 88.6263 34.0285 88.6263 32.0295C88.6263 27.9989 87.6268 25.9836 85.6279 25.9836C84.6612 25.9836 83.9239 26.4997 83.416 27.532C82.9081 28.5478 82.6541 30.0552 82.6541 32.0541C82.6541 36.0847 83.6454 38.1 85.6279 38.1ZM99.5724 40.656C97.6554 40.656 96.1644 39.9105 95.0994 38.4195C94.0344 36.9122 93.5019 34.7903 93.5019 32.0541C93.5019 29.3343 94.0344 27.2207 95.0994 25.7133C96.1644 24.1895 97.6554 23.4276 99.5724 23.4276C101.506 23.4276 103.005 24.1813 104.07 25.6887C105.135 27.1797 105.668 29.2933 105.668 32.0295C105.668 34.7658 105.135 36.8876 104.07 38.395C103.005 39.9023 101.506 40.656 99.5724 40.656ZM99.5724 38.1C100.556 38.1 101.301 37.5921 101.809 36.5763C102.317 35.544 102.571 34.0285 102.571 32.0295C102.571 27.9989 101.571 25.9836 99.5724 25.9836C98.6057 25.9836 97.8684 26.4997 97.3605 27.532C96.8526 28.5478 96.5986 30.0552 96.5986 32.0541C96.5986 36.0847 97.5899 38.1 99.5724 38.1ZM105.111 43.4578C105.848 42.4583 106.397 41.4261 106.757 40.3611C107.118 39.3125 107.306 38.1574 107.323 36.8958H110.198C110.198 38.141 109.977 39.3207 109.535 40.4348C109.092 41.549 108.453 42.5567 107.618 43.4578H105.111ZM117.837 40.656C115.92 40.656 114.429 39.9105 113.364 38.4195C112.299 36.9122 111.767 34.7903 111.767 32.0541C111.767 29.3343 112.299 27.2207 113.364 25.7133C114.429 24.1895 115.92 23.4276 117.837 23.4276C119.771 23.4276 121.27 24.1813 122.335 25.6887C123.4 27.1797 123.932 29.2933 123.932 32.0295C123.932 34.7658 123.4 36.8876 122.335 38.395C121.27 39.9023 119.771 40.656 117.837 40.656ZM117.837 38.1C118.82 38.1 119.566 37.5921 120.074 36.5763C120.582 35.544 120.836 34.0285 120.836 32.0295C120.836 27.9989 119.836 25.9836 117.837 25.9836C116.87 25.9836 116.133 26.4997 115.625 27.532C115.117 28.5478 114.863 30.0552 114.863 32.0541C114.863 36.0847 115.855 38.1 117.837 38.1ZM131.782 40.656C129.865 40.656 128.374 39.9105 127.309 38.4195C126.244 36.9122 125.711 34.7903 125.711 32.0541C125.711 29.3343 126.244 27.2207 127.309 25.7133C128.374 24.1895 129.865 23.4276 131.782 23.4276C133.715 23.4276 135.214 24.1813 136.279 25.6887C137.344 27.1797 137.877 29.2933 137.877 32.0295C137.877 34.7658 137.344 36.8876 136.279 38.395C135.214 39.9023 133.715 40.656 131.782 40.656ZM131.782 38.1C132.765 38.1 133.51 37.5921 134.018 36.5763C134.526 35.544 134.78 34.0285 134.78 32.0295C134.78 27.9989 133.781 25.9836 131.782 25.9836C130.815 25.9836 130.078 26.4997 129.57 27.532C129.062 28.5478 128.808 30.0552 128.808 32.0541C128.808 36.0847 129.799 38.1 131.782 38.1Z" fill="#645039"/>
<path opacity="0.7" d="M20.8084 61.335C20.0575 61.335 19.3953 61.1814 18.8218 60.8742V59.9936C19.4635 60.3554 20.0814 60.5363 20.6753 60.5363C21.16 60.5363 21.5423 60.4305 21.8222 60.2188C22.1021 60.0072 22.2421 59.7205 22.2421 59.3587C22.2421 59.0446 22.1226 58.7886 21.8837 58.5906C21.6447 58.3926 21.2146 58.1947 20.5934 57.9967C20.0131 57.8055 19.5864 57.5598 19.3134 57.2594C19.0471 56.959 18.914 56.5699 18.914 56.092C18.914 55.5185 19.129 55.0543 19.5591 54.6993C19.9892 54.3374 20.549 54.1565 21.2385 54.1565C21.8257 54.1565 22.3309 54.276 22.7541 54.5149V55.3547C22.3035 55.0884 21.8086 54.9553 21.2693 54.9553C20.8255 54.9553 20.4739 55.0543 20.2145 55.2523C19.9619 55.4434 19.8356 55.7028 19.8356 56.0305C19.8356 56.3377 19.9448 56.5903 20.1633 56.7883C20.3818 56.9795 20.7572 57.1536 21.2897 57.3106C21.9451 57.5086 22.423 57.768 22.7234 58.0888C23.0306 58.4097 23.1842 58.8159 23.1842 59.3074C23.1842 59.9219 22.9658 60.4134 22.5288 60.7821C22.0987 61.1507 21.5253 61.335 20.8084 61.335ZM25.6219 61.335C25.1099 61.335 24.7003 61.1951 24.3931 60.9152C24.0927 60.6353 23.9425 60.2666 23.9425 59.8092C23.9425 59.2221 24.1814 58.7715 24.6593 58.4575C25.144 58.1366 25.8404 57.9762 26.7484 57.9762C26.8234 57.9762 26.8951 57.9762 26.9634 57.9762C27.0385 57.9762 27.1136 57.9796 27.1887 57.9864C27.1819 57.4949 27.0726 57.1331 26.861 56.901C26.6494 56.6688 26.3251 56.5528 25.8882 56.5528C25.3625 56.5528 24.8573 56.703 24.3726 57.0034V56.2456C24.8914 55.9452 25.4342 55.795 26.0008 55.795C26.663 55.795 27.1716 55.9862 27.5266 56.3685C27.8884 56.7439 28.0694 57.2833 28.0694 57.9864V61.2019H27.3013L27.2501 60.5056C27.0863 60.765 26.8576 60.9698 26.564 61.12C26.2773 61.2634 25.9633 61.335 25.6219 61.335ZM25.8267 60.6489C26.0793 60.6489 26.3114 60.5841 26.5231 60.4544C26.7347 60.3247 26.8985 60.1574 27.0146 59.9526C27.1307 59.7478 27.1887 59.5259 27.1887 59.287V58.6521C27.1068 58.6452 27.0248 58.6418 26.9429 58.6418C26.8678 58.6418 26.7927 58.6418 26.7176 58.6418C26.0964 58.6418 25.6219 58.734 25.2942 58.9183C24.9734 59.1026 24.8129 59.3689 24.8129 59.7171C24.8129 59.997 24.9051 60.2223 25.0894 60.3929C25.2806 60.5636 25.5263 60.6489 25.8267 60.6489ZM29.3182 53.5728H30.2194V61.2019H29.3182V53.5728ZM33.3516 61.335C32.9146 61.335 32.5323 61.219 32.2046 60.9869C31.8838 60.7479 31.638 60.4237 31.4673 60.014C31.2967 59.5976 31.2113 59.1231 31.2113 58.5906C31.2113 58.0172 31.3035 57.5188 31.4878 57.0955C31.679 56.6723 31.9384 56.3514 32.2661 56.1329C32.6006 55.9076 32.9829 55.795 33.413 55.795C33.7407 55.795 34.0377 55.8701 34.3039 56.0203C34.5702 56.1637 34.792 56.3753 34.9695 56.6552V53.5728H35.8707V61.2019H35.0822L35.0207 60.3622C34.8637 60.6626 34.635 60.9015 34.3346 61.079C34.0411 61.2497 33.7134 61.335 33.3516 61.335ZM33.5768 60.5773C34.0069 60.5773 34.3517 60.3963 34.6111 60.0345C34.8705 59.6727 35.0003 59.188 35.0003 58.5804C35.0003 57.966 34.8705 57.4744 34.6111 57.1058C34.3517 56.7371 34.0069 56.5528 33.5768 56.5528C33.1263 56.5528 32.7713 56.7337 32.5118 57.0955C32.2524 57.4574 32.1227 57.9489 32.1227 58.5701C32.1227 59.1914 32.2524 59.6829 32.5118 60.0448C32.7713 60.3998 33.1263 60.5773 33.5768 60.5773ZM39.2578 61.335C38.7731 61.335 38.3498 61.2156 37.988 60.9766C37.6261 60.7377 37.3462 60.41 37.1483 59.9936C36.9571 59.5771 36.8615 59.1026 36.8615 58.5701C36.8615 58.0103 36.9639 57.5222 37.1687 57.1058C37.3804 56.6825 37.6671 56.3582 38.0289 56.1329C38.3908 55.9076 38.8038 55.795 39.268 55.795C39.7527 55.795 40.176 55.9145 40.5378 56.1534C40.8997 56.3924 41.1761 56.72 41.3673 57.1365C41.5653 57.5529 41.6643 58.0274 41.6643 58.5599C41.6643 59.1197 41.5585 59.6112 41.3468 60.0345C41.142 60.451 40.8587 60.7718 40.4969 60.9971C40.135 61.2224 39.722 61.335 39.2578 61.335ZM39.268 60.5773C39.7254 60.5773 40.0872 60.3963 40.3535 60.0345C40.6197 59.6727 40.7529 59.1846 40.7529 58.5701C40.7529 57.9557 40.6163 57.4676 40.3433 57.1058C40.077 56.7371 39.7152 56.5528 39.2578 56.5528C38.8004 56.5528 38.4385 56.7337 38.1723 57.0955C37.906 57.4574 37.7729 57.9455 37.7729 58.5599C37.7729 59.1743 37.906 59.6659 38.1723 60.0345C38.4454 60.3963 38.8106 60.5773 39.268 60.5773ZM46.58 61.335C45.8222 61.335 45.218 61.0859 44.7674 60.5875C44.3237 60.0891 44.1018 59.4167 44.1018 58.5701C44.1018 58.0103 44.2076 57.5222 44.4193 57.1058C44.6377 56.6825 44.9347 56.3582 45.3102 56.1329C45.6925 55.9076 46.126 55.795 46.6107 55.795C47.1364 55.795 47.5562 55.894 47.8703 56.092V56.8907C47.5699 56.6723 47.1773 56.563 46.6926 56.563C46.1738 56.563 45.7642 56.7405 45.4638 57.0955C45.1634 57.4505 45.0132 57.9387 45.0132 58.5599C45.0132 59.1675 45.1634 59.6556 45.4638 60.0243C45.771 60.3861 46.184 60.567 46.7029 60.567C47.1739 60.567 47.5904 60.4475 47.9522 60.2086V60.9971C47.5631 61.2224 47.1056 61.335 46.58 61.335ZM50.9982 61.335C50.5135 61.335 50.0902 61.2156 49.7284 60.9766C49.3666 60.7377 49.0867 60.41 48.8887 59.9936C48.6975 59.5771 48.602 59.1026 48.602 58.5701C48.602 58.0103 48.7044 57.5222 48.9092 57.1058C49.1208 56.6825 49.4075 56.3582 49.7694 56.1329C50.1312 55.9076 50.5442 55.795 51.0085 55.795C51.4932 55.795 51.9164 55.9145 52.2783 56.1534C52.6401 56.3924 52.9166 56.72 53.1077 57.1365C53.3057 57.5529 53.4047 58.0274 53.4047 58.5599C53.4047 59.1197 53.2989 59.6112 53.0873 60.0345C52.8825 60.451 52.5991 60.7718 52.2373 60.9971C51.8755 61.2224 51.4625 61.335 50.9982 61.335ZM51.0085 60.5773C51.4659 60.5773 51.8277 60.3963 52.0939 60.0345C52.3602 59.6727 52.4933 59.1846 52.4933 58.5701C52.4933 57.9557 52.3568 57.4676 52.0837 57.1058C51.8175 56.7371 51.4556 56.5528 50.9982 56.5528C50.5408 56.5528 50.179 56.7337 49.9127 57.0955C49.6465 57.4574 49.5134 57.9455 49.5134 58.5599C49.5134 59.1743 49.6465 59.6659 49.9127 60.0345C50.1858 60.3963 50.5511 60.5773 51.0085 60.5773ZM54.3991 55.9281H55.1877L55.2389 56.6552C55.4164 56.3753 55.6416 56.1637 55.9147 56.0203C56.1946 55.8701 56.5087 55.795 56.8568 55.795C57.4166 55.795 57.8604 55.9862 58.1881 56.3685C58.5158 56.7439 58.6796 57.2525 58.6796 57.8943V61.2019H57.7785V58.0274C57.7785 57.5632 57.6727 57.2048 57.461 56.9522C57.2562 56.6927 56.9661 56.563 56.5906 56.563C56.2083 56.563 55.8977 56.6996 55.6587 56.9726C55.4198 57.2389 55.3003 57.5905 55.3003 58.0274V61.2019H54.3991V55.9281ZM61.7419 61.3043C61.2367 61.3043 60.8544 61.1644 60.595 60.8845C60.3356 60.5977 60.2058 60.1847 60.2058 59.6454V56.6347H59.3559V55.9281H60.2058V54.4842H61.107V55.9281H62.387V56.6347H61.107V59.5839C61.107 59.9253 61.1719 60.1745 61.3016 60.3315C61.4381 60.4817 61.6429 60.5568 61.916 60.5568C62.1276 60.5568 62.3393 60.5056 62.5509 60.4032V61.1302C62.2983 61.2463 62.0286 61.3043 61.7419 61.3043ZM64.8734 61.335C64.3614 61.335 63.9517 61.1951 63.6445 60.9152C63.3442 60.6353 63.194 60.2666 63.194 59.8092C63.194 59.2221 63.4329 58.7715 63.9108 58.4575C64.3955 58.1366 65.0918 57.9762 65.9998 57.9762C66.0749 57.9762 66.1466 57.9762 66.2149 57.9762C66.29 57.9762 66.3651 57.9796 66.4402 57.9864C66.4333 57.4949 66.3241 57.1331 66.1125 56.901C65.9008 56.6688 65.5766 56.5528 65.1396 56.5528C64.614 56.5528 64.1088 56.703 63.6241 57.0034V56.2456C64.1429 55.9452 64.6856 55.795 65.2523 55.795C65.9145 55.795 66.4231 55.9862 66.7781 56.3685C67.1399 56.7439 67.3208 57.2833 67.3208 57.9864V61.2019H66.5528L66.5016 60.5056C66.3378 60.765 66.1091 60.9698 65.8155 61.12C65.5288 61.2634 65.2147 61.335 64.8734 61.335ZM65.0782 60.6489C65.3308 60.6489 65.5629 60.5841 65.7745 60.4544C65.9862 60.3247 66.15 60.1574 66.2661 59.9526C66.3821 59.7478 66.4402 59.5259 66.4402 59.287V58.6521C66.3582 58.6452 66.2763 58.6418 66.1944 58.6418C66.1193 58.6418 66.0442 58.6418 65.9691 58.6418C65.3479 58.6418 64.8734 58.734 64.5457 58.9183C64.2248 59.1026 64.0644 59.3689 64.0644 59.7171C64.0644 59.997 64.1566 60.2223 64.3409 60.3929C64.532 60.5636 64.7778 60.6489 65.0782 60.6489ZM72.4909 61.335C71.7332 61.335 71.129 61.0859 70.6784 60.5875C70.2346 60.0891 70.0128 59.4167 70.0128 58.5701C70.0128 58.0103 70.1186 57.5222 70.3302 57.1058C70.5487 56.6825 70.8457 56.3582 71.2211 56.1329C71.6034 55.9076 72.037 55.795 72.5217 55.795C73.0473 55.795 73.4672 55.894 73.7812 56.092V56.8907C73.4809 56.6723 73.0883 56.563 72.6036 56.563C72.0847 56.563 71.6751 56.7405 71.3747 57.0955C71.0744 57.4505 70.9242 57.9387 70.9242 58.5599C70.9242 59.1675 71.0744 59.6556 71.3747 60.0243C71.682 60.3861 72.095 60.567 72.6138 60.567C73.0849 60.567 73.5013 60.4475 73.8632 60.2086V60.9971C73.474 61.2224 73.0166 61.335 72.4909 61.335ZM76.9092 61.335C76.4245 61.335 76.0012 61.2156 75.6394 60.9766C75.2776 60.7377 74.9977 60.41 74.7997 59.9936C74.6085 59.5771 74.5129 59.1026 74.5129 58.5701C74.5129 58.0103 74.6153 57.5222 74.8202 57.1058C75.0318 56.6825 75.3185 56.3582 75.6803 56.1329C76.0422 55.9076 76.4552 55.795 76.9194 55.795C77.4041 55.795 77.8274 55.9145 78.1892 56.1534C78.5511 56.3924 78.8276 56.72 79.0187 57.1365C79.2167 57.5529 79.3157 58.0274 79.3157 58.5599C79.3157 59.1197 79.2099 59.6112 78.9982 60.0345C78.7934 60.451 78.5101 60.7718 78.1483 60.9971C77.7865 61.2224 77.3734 61.335 76.9092 61.335ZM76.9194 60.5773C77.3768 60.5773 77.7387 60.3963 78.0049 60.0345C78.2712 59.6727 78.4043 59.1846 78.4043 58.5701C78.4043 57.9557 78.2677 57.4676 77.9947 57.1058C77.7284 56.7371 77.3666 56.5528 76.9092 56.5528C76.4518 56.5528 76.09 56.7337 75.8237 57.0955C75.5575 57.4574 75.4243 57.9455 75.4243 58.5599C75.4243 59.1743 75.5575 59.6659 75.8237 60.0345C76.0968 60.3963 76.462 60.5773 76.9194 60.5773ZM80.3101 55.9281H81.0986L81.1601 56.7166C81.283 56.4367 81.4605 56.2183 81.6926 56.0612C81.9247 55.9042 82.1807 55.8257 82.4606 55.8257C82.6313 55.8257 82.7781 55.8462 82.9009 55.8872V56.7166C82.7644 56.6688 82.6074 56.6449 82.4299 56.6449C82.0612 56.6449 81.7643 56.7917 81.539 57.0853C81.3205 57.372 81.2113 57.7543 81.2113 58.2322V61.2019H80.3101V55.9281ZM83.8403 55.9281H84.6288L84.6902 56.7166C84.8131 56.4367 84.9906 56.2183 85.2227 56.0612C85.4548 55.9042 85.7108 55.8257 85.9907 55.8257C86.1614 55.8257 86.3082 55.8462 86.4311 55.8872V56.7166C86.2945 56.6688 86.1375 56.6449 85.96 56.6449C85.5914 56.6449 85.2944 56.7917 85.0691 57.0853C84.8506 57.372 84.7414 57.7543 84.7414 58.2322V61.2019H83.8403V55.9281ZM89.3823 61.335C88.604 61.335 87.9896 61.0859 87.539 60.5875C87.0953 60.0891 86.8734 59.4099 86.8734 58.5497C86.8734 57.9899 86.9724 57.5017 87.1704 57.0853C87.3684 56.6688 87.6414 56.3514 87.9896 56.1329C88.3446 55.9076 88.7474 55.795 89.198 55.795C89.8534 55.795 90.3688 56.0237 90.7443 56.4811C91.1197 56.9317 91.3075 57.5598 91.3075 58.3653V58.8364H87.7438C87.7916 59.3962 87.9657 59.8263 88.2661 60.1267C88.5665 60.4271 88.9727 60.5773 89.4847 60.5773C90.0309 60.5773 90.5326 60.4339 90.99 60.1472V60.9254C90.5326 61.1985 89.9967 61.335 89.3823 61.335ZM89.157 56.5221C88.7474 56.5221 88.4197 56.662 88.1739 56.9419C87.935 57.2218 87.7916 57.6246 87.7438 58.1503H90.4678C90.4473 57.6314 90.321 57.2321 90.0889 56.9522C89.8636 56.6654 89.553 56.5221 89.157 56.5221ZM92.2906 55.9281H93.0791L93.1303 56.6552C93.3078 56.3753 93.5331 56.1637 93.8061 56.0203C94.086 55.8701 94.4001 55.795 94.7483 55.795C95.3081 55.795 95.7518 55.9862 96.0795 56.3685C96.4072 56.7439 96.571 57.2525 96.571 57.8943V61.2019H95.6699V58.0274C95.6699 57.5632 95.5641 57.2048 95.3524 56.9522C95.1476 56.6927 94.8575 56.563 94.482 56.563C94.0997 56.563 93.7891 56.6996 93.5501 56.9726C93.3112 57.2389 93.1917 57.5905 93.1917 58.0274V61.2019H92.2906V55.9281ZM99.6333 61.3043C99.1281 61.3043 98.7458 61.1644 98.4864 60.8845C98.227 60.5977 98.0973 60.1847 98.0973 59.6454V56.6347H97.2473V55.9281H98.0973V54.4842H98.9984V55.9281H100.278V56.6347H98.9984V59.5839C98.9984 59.9253 99.0633 60.1745 99.193 60.3315C99.3295 60.4817 99.5343 60.5568 99.8074 60.5568C100.019 60.5568 100.231 60.5056 100.442 60.4032V61.1302C100.19 61.2463 99.9201 61.3043 99.6333 61.3043ZM103.403 61.335C102.625 61.335 102.01 61.0859 101.56 60.5875C101.116 60.0891 100.894 59.4099 100.894 58.5497C100.894 57.9899 100.993 57.5017 101.191 57.0853C101.389 56.6688 101.662 56.3514 102.01 56.1329C102.365 55.9076 102.768 55.795 103.219 55.795C103.874 55.795 104.389 56.0237 104.765 56.4811C105.14 56.9317 105.328 57.5598 105.328 58.3653V58.8364H101.764C101.812 59.3962 101.986 59.8263 102.287 60.1267C102.587 60.4271 102.993 60.5773 103.505 60.5773C104.051 60.5773 104.553 60.4339 105.011 60.1472V60.9254C104.553 61.1985 104.017 61.335 103.403 61.335ZM103.178 56.5221C102.768 56.5221 102.44 56.662 102.194 56.9419C101.956 57.2218 101.812 57.6246 101.764 58.1503H104.488C104.468 57.6314 104.342 57.2321 104.109 56.9522C103.884 56.6654 103.574 56.5221 103.178 56.5221Z" fill="#645039"/>
<path d="M18.5556 93.7766H19.9175L21.1259 97.7703L22.324 93.7766H23.6655L21.7301 99.0913H20.491L18.5556 93.7766ZM26.5728 99.2245C25.7399 99.2245 25.088 98.9753 24.6169 98.4769C24.1459 97.9786 23.9103 97.2924 23.9103 96.4186C23.9103 95.8588 24.0127 95.3707 24.2175 94.9542C24.4292 94.531 24.7193 94.2067 25.088 93.9814C25.4566 93.7561 25.8765 93.6435 26.3475 93.6435C27.0371 93.6435 27.5798 93.8756 27.9758 94.3398C28.3717 94.804 28.5697 95.4458 28.5697 96.265V96.8385H25.1289C25.1972 97.289 25.3679 97.6304 25.6409 97.8625C25.914 98.0946 26.2793 98.2107 26.7367 98.2107C27.2419 98.2107 27.7436 98.081 28.242 97.8215V98.8353C27.7641 99.0948 27.2077 99.2245 26.5728 99.2245ZM26.2963 94.6163C25.9618 94.6163 25.6922 94.7323 25.4873 94.9645C25.2894 95.1898 25.1665 95.5209 25.1187 95.9578H27.3921C27.3784 95.5345 27.276 95.2068 27.0848 94.9747C26.8937 94.7358 26.6309 94.6163 26.2963 94.6163ZM29.4465 93.7766H30.5627L30.6447 94.5446C30.7744 94.2715 30.9485 94.0599 31.1669 93.9097C31.3922 93.7527 31.6414 93.6742 31.9145 93.6742C32.0783 93.6742 32.2114 93.6947 32.3138 93.7356V94.903C32.191 94.8552 32.0408 94.8313 31.8633 94.8313C31.5151 94.8313 31.2352 94.9611 31.0236 95.2205C30.8187 95.4731 30.7163 95.8178 30.7163 96.2548V99.0913H29.4465V93.7766ZM37.3332 99.2245C36.5003 99.2245 35.8484 98.9753 35.3773 98.4769C34.9063 97.9786 34.6707 97.2924 34.6707 96.4186C34.6707 95.8588 34.7731 95.3707 34.9779 94.9542C35.1896 94.531 35.4797 94.2067 35.8484 93.9814C36.217 93.7561 36.6369 93.6435 37.1079 93.6435C37.7975 93.6435 38.3402 93.8756 38.7362 94.3398C39.1321 94.804 39.3301 95.4458 39.3301 96.265V96.8385H35.8893C35.9576 97.289 36.1283 97.6304 36.4014 97.8625C36.6744 98.0946 37.0397 98.2107 37.4971 98.2107C38.0023 98.2107 38.504 98.081 39.0024 97.8215V98.8353C38.5245 99.0948 37.9681 99.2245 37.3332 99.2245ZM37.0567 94.6163C36.7222 94.6163 36.4526 94.7323 36.2477 94.9645C36.0498 95.1898 35.9269 95.5209 35.8791 95.9578H38.1525C38.1388 95.5345 38.0364 95.2068 37.8452 94.9747C37.6541 94.7358 37.3913 94.6163 37.0567 94.6163ZM41.4894 96.3572L39.7485 93.7766H41.1924L42.2677 95.5277L43.3122 93.7766H44.7049L42.9538 96.3674L44.8073 99.0913H43.3429L42.196 97.2583L41.0388 99.0913H39.6461L41.4894 96.3572ZM47.7657 99.1937C47.1922 99.1937 46.7587 99.0436 46.4652 98.7432C46.1716 98.436 46.0248 97.982 46.0248 97.3812V94.7597H45.1851V93.7766H46.0248V92.3634H47.2946V93.7766H48.4825V94.7597H47.2946V97.2686C47.2946 97.5758 47.3561 97.8045 47.479 97.9547C47.6019 98.098 47.793 98.1697 48.0524 98.1697C48.2504 98.1697 48.4416 98.1287 48.6259 98.0468V99.0401C48.346 99.1425 48.0593 99.1937 47.7657 99.1937ZM49.4073 93.7766H50.5235L50.6054 94.5446C50.7351 94.2715 50.9092 94.0599 51.1277 93.9097C51.353 93.7527 51.6021 93.6742 51.8752 93.6742C52.0391 93.6742 52.1722 93.6947 52.2746 93.7356V94.903C52.1517 94.8552 52.0015 94.8313 51.824 94.8313C51.4758 94.8313 51.1959 94.9611 50.9843 95.2205C50.7795 95.4731 50.6771 95.8178 50.6771 96.2548V99.0913H49.4073V93.7766ZM54.4623 99.2245C53.9434 99.2245 53.527 99.0845 53.2129 98.8046C52.8989 98.5247 52.7419 98.1492 52.7419 97.6782C52.7419 97.0774 52.9808 96.6132 53.4587 96.2855C53.9366 95.951 54.6159 95.7837 55.4965 95.7837C55.5716 95.7837 55.6467 95.7837 55.7218 95.7837C55.7969 95.7837 55.8686 95.7871 55.9369 95.7939C55.9164 95.4116 55.8072 95.1283 55.6092 94.944C55.4112 94.7597 55.1142 94.6675 54.7183 94.6675C54.2131 94.6675 53.7079 94.8109 53.2027 95.0976V94.0736C53.7557 93.7868 54.3257 93.6435 54.9128 93.6435C55.6297 93.6435 56.1827 93.8414 56.5718 94.2374C56.9609 94.6265 57.1555 95.1863 57.1555 95.9168V99.0913H56.1007L56.029 98.4769C55.8652 98.709 55.6433 98.8934 55.3634 99.0299C55.0903 99.1596 54.79 99.2245 54.4623 99.2245ZM54.8104 98.3233C55.1245 98.3233 55.3907 98.2107 55.6092 97.9854C55.8345 97.7601 55.9471 97.487 55.9471 97.1661V96.6439C55.8789 96.6439 55.8072 96.6439 55.7321 96.6439C55.6638 96.6371 55.5921 96.6336 55.517 96.6336C55.0118 96.6336 54.6227 96.7122 54.3496 96.8692C54.0834 97.0194 53.9503 97.2412 53.9503 97.5348C53.9503 97.7737 54.0288 97.9649 54.1858 98.1083C54.3428 98.2516 54.551 98.3233 54.8104 98.3233ZM60.2262 99.1937C59.6527 99.1937 59.2192 99.0436 58.9256 98.7432C58.6321 98.436 58.4853 97.982 58.4853 97.3812V94.7597H57.6456V93.7766H58.4853V92.3634H59.7551V93.7766H60.943V94.7597H59.7551V97.2686C59.7551 97.5758 59.8166 97.8045 59.9394 97.9547C60.0623 98.098 60.2535 98.1697 60.5129 98.1697C60.7109 98.1697 60.902 98.1287 61.0864 98.0468V99.0401C60.8065 99.1425 60.5197 99.1937 60.2262 99.1937ZM64.0406 99.2245C63.5286 99.2245 63.0814 99.1084 62.6991 98.8763C62.3237 98.6373 62.0335 98.3097 61.8287 97.8932C61.6307 97.4699 61.5317 96.9852 61.5317 96.4391C61.5317 95.8724 61.6376 95.3775 61.8492 94.9542C62.0676 94.531 62.3646 94.2067 62.7401 93.9814C63.1224 93.7561 63.5559 93.6435 64.0406 93.6435C64.5526 93.6435 64.9964 93.7629 65.3719 94.0019C65.7542 94.234 66.0443 94.5617 66.2423 94.9849C66.4471 95.4014 66.5495 95.8827 66.5495 96.4288C66.5495 96.9955 66.4403 97.4904 66.2218 97.9137C66.0102 98.337 65.7132 98.6612 65.3309 98.8865C64.9554 99.1118 64.5253 99.2245 64.0406 99.2245ZM64.0406 98.1799C64.4229 98.1799 64.7233 98.0263 64.9418 97.7191C65.1602 97.4119 65.2695 96.9852 65.2695 96.4391C65.2695 95.8998 65.1602 95.4731 64.9418 95.159C64.7233 94.845 64.4229 94.688 64.0406 94.688C63.6583 94.688 63.3579 94.8416 63.1395 95.1488C62.921 95.456 62.8118 95.8827 62.8118 96.4288C62.8118 96.9682 62.921 97.3948 63.1395 97.7089C63.3579 98.0229 63.6583 98.1799 64.0406 98.1799Z" fill="#106EB0"/>
<path opacity="0.8" d="M185.863 91.1394L189.959 95.2356L185.863 99.3317" stroke="#F4A45E" stroke-width="1.53606"/>
<path opacity="0.1" d="M0 74.7548H213" stroke="#645039" stroke-width="1.53606"/>
<defs>
<linearGradient id="paint0_linear_110:220" x1="31.0625" y1="2.38258e-06" x2="130.033" y2="245.783" gradientUnits="userSpaceOnUse">
<stop stop-color="white"/>
<stop offset="1" stop-color="#FFECC6"/>
</linearGradient>
</defs>
</svg>
