<svg width="40" height="88" viewBox="0 0 40 88" fill="none" xmlns="http://www.w3.org/2000/svg">
<path fill-rule="evenodd" clip-rule="evenodd" d="M15.7404 0.756488C16.7491 1.76514 16.7491 3.40048 15.7404 4.40914C14.7318 5.41779 13.0964 5.41779 12.0878 4.40914C11.0791 3.40049 11.0791 1.76514 12.0878 0.756488C13.0964 -0.252163 14.7318 -0.252163 15.7404 0.756488Z" fill="white"/>
<path opacity="0.6" d="M5.98474 20.0168H8.8904" stroke="white" stroke-width="1.66038" stroke-linecap="round" stroke-linejoin="round"/>
<path d="M13.914 9.03985V20.6625C13.914 22.0895 12.7582 23.2453 11.3312 23.2453H3.58281C2.15581 23.2453 1 22.0895 1 20.6625V5.16563C1 3.73863 2.15581 2.58282 3.58281 2.58282H7.45702" stroke="white" stroke-width="1.66038" stroke-linecap="round" stroke-linejoin="round"/>
<path d="M1.94143 48.2076V38.1208H8.11306V39.6898H3.80936V42.5291H7.36589V44.0981H3.80936V48.2076H1.94143ZM9.55906 48.2076V38.1208H15.8502V39.6898H11.427V42.29H15.1031V43.8591H11.427V46.6385H15.9997V48.2076H9.55906ZM17.5853 48.2076V38.1208H19.4981V48.2076H17.5853ZM23.7854 48.2076V39.7496H20.7818V38.1208H28.7018V39.7496H25.6982V48.2076H23.7854ZM33.7362 46.7581C34.5631 46.7581 35.2156 46.4343 35.6938 45.7868C36.172 45.1392 36.4111 44.2675 36.4111 43.1717C36.4111 42.0758 36.167 41.2041 35.6788 40.5566C35.1907 39.8991 34.5382 39.5703 33.7213 39.5703C32.9043 39.5703 32.2568 39.8941 31.7786 40.5416C31.3004 41.1792 31.0613 42.0509 31.0613 43.1567C31.0613 44.2526 31.3004 45.1292 31.7786 45.7868C32.2668 46.4343 32.9193 46.7581 33.7362 46.7581ZM33.7213 48.4018C32.7848 48.4018 31.9679 48.1777 31.2705 47.7294C30.5732 47.2811 30.0352 46.6634 29.6566 45.8764C29.288 45.0894 29.1037 44.1878 29.1037 43.1717C29.1037 42.1157 29.303 41.1941 29.7015 40.4071C30.1099 39.6101 30.6628 38.9975 31.3602 38.5691C32.0576 38.1407 32.8545 37.9265 33.7511 37.9265C34.6876 37.9265 35.5045 38.1507 36.2019 38.599C36.8992 39.0473 37.4322 39.6649 37.8008 40.452C38.1794 41.239 38.3686 42.1406 38.3686 43.1567C38.3686 44.2127 38.1644 45.1392 37.756 45.9362C37.3575 46.7232 36.8096 47.3309 36.1122 47.7593C35.4148 48.1877 34.6179 48.4018 33.7213 48.4018ZM6.39457 66.4018C5.38838 66.4018 4.51668 66.1877 3.77947 65.7593C3.04226 65.3209 2.4794 64.7132 2.09087 63.9362C1.70234 63.1591 1.50808 62.2625 1.50808 61.2464C1.50808 60.1704 1.71728 59.234 2.1357 58.437C2.56408 57.6301 3.14687 57.0124 3.88408 56.584C4.63125 56.1457 5.47804 55.9265 6.42445 55.9265C6.87276 55.9265 7.31109 55.9813 7.73947 56.0909C8.17781 56.2005 8.56136 56.3499 8.89011 56.5392V58.2726C8.56136 58.0535 8.19774 57.8841 7.79925 57.7646C7.40076 57.6351 7.00725 57.5703 6.61872 57.5703C5.64242 57.5703 4.87034 57.8941 4.30249 58.5416C3.7446 59.1792 3.46566 60.0509 3.46566 61.1567C3.46566 62.2526 3.75457 63.1292 4.33238 63.7868C4.91019 64.4343 5.67728 64.7581 6.63366 64.7581C7.51034 64.7581 8.32226 64.4941 9.06943 63.9661V65.6995C8.29238 66.1677 7.40076 66.4018 6.39457 66.4018ZM14.5462 64.7581C15.3731 64.7581 16.0256 64.4343 16.5038 63.7868C16.982 63.1392 17.2211 62.2675 17.2211 61.1717C17.2211 60.0758 16.977 59.2041 16.4888 58.5566C16.0007 57.8991 15.3482 57.5703 14.5312 57.5703C13.7143 57.5703 13.0668 57.8941 12.5886 58.5416C12.1104 59.1792 11.8713 60.0509 11.8713 61.1567C11.8713 62.2526 12.1104 63.1292 12.5886 63.7868C13.0768 64.4343 13.7293 64.7581 14.5462 64.7581ZM14.5312 66.4018C13.5948 66.4018 12.7779 66.1777 12.0805 65.7294C11.3832 65.2811 10.8452 64.6634 10.4666 63.8764C10.098 63.0894 9.91374 62.1878 9.91374 61.1717C9.91374 60.1157 10.113 59.1941 10.5115 58.4071C10.9199 57.6101 11.4728 56.9975 12.1702 56.5691C12.8675 56.1407 13.6645 55.9265 14.5611 55.9265C15.4976 55.9265 16.3145 56.1507 17.0118 56.599C17.7092 57.0473 18.2422 57.6649 18.6108 58.452C18.9894 59.239 19.1786 60.1406 19.1786 61.1567C19.1786 62.2127 18.9744 63.1392 18.566 63.9362C18.1675 64.7232 17.6195 65.3309 16.9222 65.7593C16.2248 66.1877 15.4278 66.4018 14.5312 66.4018ZM20.3663 66.2076L21.0238 56.1208H23.2354L25.8804 62.8304L28.5104 56.1208H30.7071L31.3646 66.2076H29.5565L29.1082 58.7807L26.6425 65.1317H25.0735L22.5929 58.7658L22.1296 66.2076H20.3663ZM1.26898 74.1208H3.31623L5.81177 82.1006L8.29238 74.1208H10.2948L6.84287 84.2076H4.75079L1.26898 74.1208ZM15.2175 82.7581C16.0443 82.7581 16.6969 82.4343 17.1751 81.7868C17.6532 81.1392 17.8923 80.2675 17.8923 79.1717C17.8923 78.0758 17.6483 77.2041 17.1601 76.5566C16.672 75.8991 16.0194 75.5703 15.2025 75.5703C14.3856 75.5703 13.7381 75.8941 13.2599 76.5416C12.7817 77.1792 12.5426 78.0509 12.5426 79.1567C12.5426 80.2526 12.7817 81.1292 13.2599 81.7868C13.748 82.4343 14.4006 82.7581 15.2175 82.7581ZM15.2025 84.4018C14.2661 84.4018 13.4492 84.1777 12.7518 83.7294C12.0545 83.2811 11.5165 82.6634 11.1379 81.8764C10.7693 81.0894 10.585 80.1878 10.585 79.1717C10.585 78.1157 10.7843 77.1941 11.1828 76.4071C11.5912 75.6101 12.1441 74.9975 12.8415 74.5691C13.5388 74.1407 14.3358 73.9265 15.2324 73.9265C16.1689 73.9265 16.9858 74.1507 17.6831 74.599C18.3805 75.0473 18.9135 75.6649 19.2821 76.452C19.6606 77.239 19.8499 78.1406 19.8499 79.1567C19.8499 80.2127 19.6457 81.1392 19.2372 81.9362C18.8388 82.7232 18.2908 83.3309 17.5935 83.7593C16.8961 84.1877 16.0991 84.4018 15.2025 84.4018ZM25.7597 84.4018C24.7535 84.4018 23.8818 84.1877 23.1446 83.7593C22.4074 83.3209 21.8445 82.7132 21.456 81.9362C21.0675 81.1591 20.8732 80.2625 20.8732 79.2464C20.8732 78.1704 21.0824 77.234 21.5008 76.437C21.9292 75.6301 22.512 75.0124 23.2492 74.584C23.9964 74.1457 24.8432 73.9265 25.7896 73.9265C26.2379 73.9265 26.6762 73.9813 27.1046 74.0909C27.5429 74.2005 27.9265 74.3499 28.2552 74.5392V76.2726C27.9265 76.0535 27.5629 75.8841 27.1644 75.7646C26.7659 75.6351 26.3724 75.5703 25.9838 75.5703C25.0075 75.5703 24.2355 75.8941 23.6676 76.5416C23.1097 77.1792 22.8308 78.0509 22.8308 79.1567C22.8308 80.2526 23.1197 81.1292 23.6975 81.7868C24.2753 82.4343 25.0424 82.7581 25.9988 82.7581C26.8755 82.7581 27.6874 82.4941 28.4346 81.9661V83.6995C27.6575 84.1677 26.7659 84.4018 25.7597 84.4018ZM30.0916 84.2076V74.1208H36.3828V75.6898H31.9596V78.29H35.6356V79.8591H31.9596V82.6385H36.5322V84.2076H30.0916ZM34.3057 73.1345L33.2298 71.8793L32.1538 73.1345H30.5101L32.363 70.9528H34.0965L35.9495 73.1345H34.3057Z" fill="white"/>
</svg>
