<svg width="22" height="22" viewBox="0 0 22 22" fill="none" xmlns="http://www.w3.org/2000/svg">
<path opacity="0.8" d="M18.0711 3.92894C21.9763 7.83418 21.9763 14.1658 18.0711 18.0711C14.1658 21.9763 7.83416 21.9763 3.92894 18.0711C0.0236879 14.1658 0.0236879 7.83416 3.92894 3.92894C7.83418 0.0236879 14.1658 0.0236879 18.0711 3.92894" stroke="white" stroke-width="1.5" stroke-linecap="round" stroke-linejoin="round"/>
<path d="M13.21 6.91545C14.4306 8.13605 14.4306 10.1151 13.21 11.3357C11.9894 12.5563 10.0104 12.5563 8.78984 11.3357C7.56924 10.1151 7.56924 8.13605 8.78984 6.91545C10.0104 5.69485 11.9894 5.69485 13.21 6.91545" stroke="white" stroke-width="1.5" stroke-linecap="round" stroke-linejoin="round"/>
<path d="M17.3411 18.7311C15.7467 17.0522 13.4978 16 11 16C8.50221 16 6.25332 17.0522 4.65887 18.7322" stroke="white" stroke-width="1.5" stroke-linecap="round" stroke-linejoin="round"/>
</svg>
