<svg width="28" height="34" viewBox="0 0 28 34" fill="none" xmlns="http://www.w3.org/2000/svg">
<path fill-rule="evenodd" clip-rule="evenodd" d="M20 31H8C6.3425 31 5 29.6575 5 28V7C5 5.3425 6.3425 4 8 4H20C21.6575 4 23 5.3425 23 7V28C23 29.6575 21.6575 31 20 31Z" stroke="#EC7000" stroke-width="2" stroke-linecap="round" stroke-linejoin="round"/>
<path opacity="0.6" d="M13.9985 25.375C13.7915 25.375 13.6235 25.543 13.625 25.75C13.625 25.957 13.793 26.125 14 26.125C14.207 26.125 14.375 25.957 14.375 25.75C14.375 25.543 14.207 25.375 13.9985 25.375" stroke="#EC7000" stroke-width="2" stroke-linecap="round" stroke-linejoin="round"/>
<path opacity="0.6" d="M12.125 8.5H15.875" stroke="#EC7000" stroke-width="2" stroke-linecap="round" stroke-linejoin="round"/>
</svg>
