<svg width="48" height="49" viewBox="0 0 48 49" fill="none" xmlns="http://www.w3.org/2000/svg">
<path fill-rule="evenodd" clip-rule="evenodd" d="M7.91316 0.991837H39.5458L39.9562 1.00031L40.3554 1.03419L40.7532 1.08502L41.1426 1.15421L41.525 1.24458L41.9019 1.35189L42.269 1.47756L42.6277 1.62158L42.978 1.78113L43.3186 1.95763L43.6508 2.15248L43.9718 2.36005L44.2803 2.58173L44.579 2.82176L44.8679 3.07451L45.1401 3.33855L45.4039 3.61671L45.651 3.90475L45.8883 4.20833L46.1074 4.5232L46.3112 4.84796L46.501 5.18401L46.6769 5.52853L46.8374 5.88294L46.9756 6.24582L47.1012 6.61717L47.2073 6.99841L47.2966 7.38529L47.365 7.77923L47.4152 8.17741L47.4473 8.58548L47.4571 8.99777V41.0032L47.4473 41.4142L47.4152 41.8193L47.365 42.2214L47.2966 42.6144L47.2073 43.0016L47.1012 43.3825L46.9756 43.7516L46.8374 44.1146L46.6769 44.4717L46.501 44.8138L46.3112 45.1499L46.1074 45.4739L45.8883 45.789L45.651 46.089L45.4039 46.38L45.1401 46.659L44.8679 46.9231L44.579 47.1751L44.2803 47.4122L43.9718 47.6342L43.6508 47.8412L43.3186 48.0333L42.978 48.2103L42.6277 48.3723L42.269 48.5133L41.9019 48.6394L41.525 48.7474L41.1426 48.8374L40.7532 48.9064L40.3554 48.9574L39.9562 48.9904L39.5458 48.9994H7.91316L7.50377 48.9904L7.10346 48.9574L6.70594 48.9064L6.31736 48.8374L5.93184 48.7474L5.55805 48.6394L5.19026 48.5133L4.8314 48.3723L4.47841 48.2103L4.13742 48.0333L3.80816 47.8412L3.48489 47.6342L3.17642 47.4122L2.87675 47.1751L2.58908 46.9231L2.3162 46.659L2.05226 46.38L1.80604 46.089L1.57169 45.789L1.34934 45.4739L1.14465 45.1499L0.954824 44.8138L0.779821 44.4717L0.619654 44.1146L0.480257 43.7516L0.355684 43.3825L0.248906 43.0016L0.159925 42.6144L0.0917031 42.2214L0.0412804 41.8193L0.00865399 41.4142L-0.000244141 41.0032V8.99777L0.00865399 8.58548L0.0412804 8.17741L0.0917031 7.77923L0.159925 7.38529L0.248906 6.99841L0.355684 6.61717L0.480257 6.24582L0.619654 5.88294L0.779821 5.52853L0.954824 5.18401L1.14465 4.84796L1.34934 4.5232L1.57169 4.20833L1.80604 3.90475L2.05226 3.61671L2.3162 3.33855L2.58908 3.07451L2.87675 2.82176L3.17642 2.58173L3.48489 2.36005L3.80816 2.15248L4.13742 1.95763L4.47841 1.78113L4.8314 1.62158L5.19026 1.47756L5.55805 1.35189L5.93184 1.24458L6.31736 1.15421L6.70594 1.08502L7.10346 1.03419L7.50377 1.00031L7.91316 0.991837Z" fill="#003499"/>
<path fill-rule="evenodd" clip-rule="evenodd" d="M3.95346 40.9971H7.64322V24.9923H3.95346V40.9971Z" fill="#FFFF01"/>
<path fill-rule="evenodd" clip-rule="evenodd" d="M24.1765 28.6526H23.9658L23.7578 28.6596L23.5526 28.6681L23.3544 28.6808L23.159 28.6921L22.9664 28.7105L22.7766 28.7316L22.5895 28.7528L22.4081 28.7796L22.2308 28.8065L22.0549 28.8361L21.8832 28.8686L21.7171 28.9025L21.5538 28.9378L21.3933 28.9773L21.237 29.0169L21.0849 29.0578L20.9369 29.1002L20.7945 29.1453L20.655 29.1905L20.5182 29.2357L20.3884 29.2837L20.2613 29.3317L20.1385 29.3826L20.0199 29.4306L19.9054 29.4814L19.7952 29.5322L19.6877 29.5831L19.5872 29.6339L19.4895 29.6847L19.3974 29.737L19.308 29.7878L20.0031 32.1458L20.0827 32.0978L20.1664 32.0498L20.2516 32.0018L20.3409 31.9566L20.433 31.9114L20.5279 31.8662L20.6256 31.821L20.7261 31.7801L20.8308 31.7377L20.9369 31.6954L21.0444 31.653L21.1533 31.6149L21.2635 31.5782L21.3766 31.5401L21.491 31.5034L21.6069 31.4709L21.7255 31.437L21.8442 31.4073L21.9656 31.3777L22.0842 31.3509L22.2071 31.324L22.3313 31.3L22.4527 31.2788L22.577 31.2577L22.6984 31.2393L22.824 31.2252L22.9482 31.2097L23.0697 31.2012L23.1939 31.1913L23.3153 31.1828L23.4409 31.18H23.5624L23.7578 31.1828L23.9476 31.1913L24.1249 31.2068L24.291 31.2252L24.4515 31.252L24.6036 31.2817L24.746 31.317L24.8786 31.3565L25.007 31.4017L25.1257 31.4497L25.2345 31.5005L25.335 31.5542L25.4299 31.6121L25.5193 31.6714L25.603 31.7349L25.677 31.797L25.7454 31.8634L25.8096 31.9326L25.8668 31.999L25.9171 32.0681L25.9617 32.1402L26.0036 32.2093L26.0385 32.2771L26.0706 32.3463L26.0985 32.4155L26.1181 32.4819L26.1362 32.5482L26.1516 32.6103L26.1627 32.6739L26.1697 32.7332L26.1753 32.7911V32.8447V32.9732L25.7328 32.9775L25.3001 32.9888L24.8786 33.0099L24.4696 33.0396L24.0718 33.0791L23.6866 33.13L23.3097 33.1864L22.9482 33.2556L22.5979 33.3305L22.2629 33.418L21.9363 33.514L21.625 33.6185L21.3291 33.7329L21.0444 33.8557L20.7708 33.9884L20.5126 34.1296L20.2697 34.2793L20.0408 34.4375L19.8245 34.6055L19.6263 34.7862L19.4392 34.9722L19.2703 35.1672L19.1154 35.3742L18.973 35.5872L18.8516 35.8092L18.7427 36.0433L18.6506 36.2833L18.5766 36.5354L18.5166 36.7933L18.472 37.0605L18.4482 37.3395L18.4398 37.6246L18.4426 37.7956L18.4538 37.9666L18.4747 38.1376L18.5055 38.3056L18.5431 38.4736L18.5878 38.6416L18.6408 38.8067L18.7037 38.9688L18.772 39.1278L18.8516 39.2838L18.9381 39.4369L19.0303 39.5868L19.1308 39.7338L19.241 39.8749L19.3597 40.0129L19.4839 40.145L19.6165 40.2709L19.7561 40.3909L19.9054 40.505L20.059 40.613L20.2223 40.715L20.3939 40.811L20.5726 40.898L20.7596 40.9761L20.9523 41.0481L21.1505 41.111L21.3612 41.1651L21.5748 41.21L21.7967 41.246L22.0256 41.2731L22.2629 41.2881L22.5058 41.294L22.6537 41.2911L22.8003 41.2851L22.9426 41.2791L23.085 41.2671L23.2232 41.2521L23.3628 41.234L23.4996 41.2131L23.6364 41.1891L23.769 41.1591L23.9002 41.1291L24.03 41.0961L24.1584 41.0601L24.2826 41.0211L24.4068 40.979L24.5283 40.931L24.6469 40.883L24.7627 40.832L24.8786 40.778L24.9917 40.724L25.1019 40.664L25.208 40.601L25.3113 40.5379L25.416 40.469L25.5137 40.4L25.6114 40.328L25.7063 40.253L25.7984 40.1749L25.885 40.0939L25.9701 40.0129L26.0538 39.9289L26.1334 39.8418L26.2102 39.7519H26.2521L26.6554 40.9971H29.6578V33.9037L29.6536 33.634L29.6396 33.37L29.6187 33.1088L29.5894 32.8504L29.5503 32.5962L29.5 32.3463L29.4442 32.1034L29.3758 31.8662L29.2949 31.6333L29.2097 31.4073L29.1078 31.1885L28.999 30.9753L28.8775 30.7691L28.7463 30.57L28.6012 30.378L28.4476 30.1959L28.2815 30.0208L28.1001 29.857L27.9074 29.7003L27.7023 29.5534L27.4859 29.415L27.2542 29.2894L27.0114 29.1722L26.7531 29.0677L26.4838 28.9717L26.1962 28.8898L25.8961 28.8178L25.5821 28.7585L25.2527 28.7133L24.9079 28.6808L24.5492 28.6596L24.1765 28.6526ZM26.2814 36.5714V36.6434L26.2786 36.7184L26.273 36.7933L26.2674 36.8714L26.2576 36.9464L26.2493 37.0245L26.2367 37.0995L26.2199 37.1744L26.213 37.2014L26.2018 37.2405L26.1934 37.2765L26.1837 37.3005L26.1725 37.3305L26.1599 37.3605L26.1278 37.4355L26.0915 37.5075L26.0538 37.5795L26.012 37.6515L25.9673 37.7206L25.9199 37.7926L25.8696 37.8615L25.8166 37.9276L25.7593 37.9935L25.7035 38.0596L25.6407 38.1226L25.5765 38.1856L25.5109 38.2456L25.4425 38.3026L25.3685 38.3597L25.2945 38.4136L25.2164 38.4647L25.1396 38.5157L25.0573 38.5607L24.9735 38.6056L24.8884 38.6477L24.799 38.6837L24.7097 38.7197L24.6148 38.7528L24.5199 38.7797L24.425 38.8067L24.3245 38.8277L24.224 38.8457L24.1221 38.8608L24.016 38.8697L23.9085 38.8787H23.8025H23.7075L23.6154 38.8728L23.5261 38.8667L23.4368 38.8547L23.3516 38.8397L23.2679 38.8248L23.1855 38.8037L23.1046 38.7797L23.0306 38.7557L22.9538 38.7256L22.8826 38.6927L22.8142 38.6567L22.7458 38.6207L22.6844 38.5787L22.6216 38.5336L22.5658 38.4887L22.5086 38.4376L22.4583 38.3837L22.4081 38.3296L22.3634 38.2696L22.3215 38.2066L22.281 38.1436L22.2448 38.0746L22.2127 38.0055L22.1861 37.9335L22.1596 37.8556L22.1387 37.7775L22.1205 37.6966L22.1052 37.6095L22.0968 37.5225L22.0912 37.4325L22.0884 37.3395L22.0912 37.2344L22.0996 37.1355L22.1149 37.0365L22.1317 36.9405L22.1554 36.8504L22.1861 36.7604L22.221 36.6764L22.2601 36.5924L22.3048 36.5114L22.3522 36.4364L22.4053 36.3613L22.4639 36.2893L22.5267 36.2204L22.5951 36.1572L22.6663 36.0943L22.7431 36.0343L22.824 35.9743L22.9064 35.9203L22.9957 35.8692L23.0878 35.8182L23.1827 35.7702L23.2832 35.7252L23.3837 35.6832L23.4912 35.6443L23.6029 35.6052L23.7159 35.5723L23.8318 35.5392L23.9532 35.5062L24.0746 35.4792L24.203 35.4522L24.3301 35.4282L24.4641 35.4072L24.5883 35.3891L24.7181 35.3712L24.8493 35.3562L24.9861 35.3411L25.1215 35.3322L25.2638 35.3202L25.4062 35.3142L25.5528 35.3082L25.6407 35.3051L25.73 35.3021L25.8221 35.2992H25.9115H26.0036H26.0943H26.1864H26.2814V36.5714Z" fill="#FFFF01"/>
<path fill-rule="evenodd" clip-rule="evenodd" d="M39.8484 29.0042V36.0343V36.1393L39.8428 36.2413L39.8331 36.3404L39.8191 36.4364L39.8038 36.5324L39.7828 36.6224L39.7563 36.7124L39.7242 36.7965L39.6977 36.8654L39.6642 36.9344L39.6293 37.0034L39.593 37.0725L39.5553 37.1384L39.5134 37.2075L39.4688 37.2765L39.4213 37.3425L39.3711 37.4085L39.3208 37.4745L39.2636 37.5406L39.2077 37.6035L39.1491 37.6636L39.0863 37.7236L39.0207 37.7806L38.9523 37.8375L38.8811 37.8916L38.81 37.9455L38.7332 37.9935L38.6564 38.0415L38.5727 38.0836L38.4903 38.1256L38.4038 38.1647L38.3144 38.1976L38.2237 38.2306L38.1288 38.2576L38.0297 38.2816L37.9292 38.2996L37.8287 38.3176L37.7212 38.3266L37.6152 38.3357H37.5021L37.3653 38.3327L37.2327 38.3237L37.1015 38.3087L36.9773 38.2847L36.8586 38.2576L36.7428 38.2216L36.6339 38.1796L36.5292 38.1316L36.4287 38.0807L36.3338 38.0206L36.2417 37.9546L36.1552 37.8826L36.0756 37.8076L35.9961 37.7236L35.9249 37.6366L35.8565 37.5435L35.7909 37.4446L35.7322 37.3395L35.6778 37.2285L35.6248 37.1144L35.5801 36.9944L35.5354 36.8685L35.4978 36.7364L35.4643 36.6013L35.4349 36.4604L35.4084 36.3164L35.3875 36.1663L35.3693 36.0103L35.3554 35.8513L35.3456 35.6862L35.34 35.5182L35.3372 35.3442V28.9985H31.7361V36.0103V36.1873L31.7417 36.3583L31.7487 36.5234L31.7571 36.6884L31.7696 36.8504L31.7836 37.0094L31.8017 37.1624L31.8199 37.3155L31.8436 37.4625L31.8673 37.6065L31.8938 37.7476L31.9259 37.8855L31.9594 38.0206L31.9943 38.1527L32.0306 38.2816L32.0711 38.4047L32.113 38.5277L32.1604 38.6477L32.2051 38.7648L32.2553 38.8787L32.3056 38.9897L32.3558 39.0977L32.4131 39.2028L32.4689 39.3078L32.5247 39.4068L32.5847 39.5058L32.6476 39.6018L32.7118 39.6919L32.7774 39.7818L32.8458 39.8689L32.9142 39.9529L32.9853 40.0338L33.0593 40.1149L33.1361 40.1899L33.2129 40.265L33.291 40.3339L33.3734 40.4029L33.4543 40.469L33.5395 40.532L33.626 40.592L33.7153 40.649L33.8033 40.703L33.8954 40.754L33.9875 40.8051L34.0824 40.85L34.1801 40.895L34.2778 40.934L34.3797 40.9731L34.483 41.0091L34.5835 41.042L34.691 41.075L34.7943 41.102L34.9045 41.1291L35.0106 41.1531L35.1209 41.1771L35.234 41.1951L35.3456 41.2131L35.4587 41.2281L35.5745 41.2401L35.6904 41.2521L35.809 41.2611L35.9277 41.2641L36.0491 41.27H36.1705H36.278L36.3813 41.2671L36.4818 41.2641L36.5823 41.258L36.6842 41.2491L36.7819 41.2401L36.8796 41.2311L36.9745 41.2161L37.0666 41.2041L37.1587 41.186L37.2509 41.1711L37.3388 41.15L37.4253 41.1321L37.5119 41.1081L37.597 41.0841L37.6808 41.0601L37.8399 41.006L37.9976 40.9491L38.1456 40.8891L38.2907 40.8291L38.4303 40.763L38.5643 40.6971L38.6913 40.625L38.8127 40.553L38.9286 40.4779L39.0416 40.4029L39.1491 40.325L39.2524 40.2469L39.3501 40.1659L39.4422 40.0819L39.5288 39.9978L39.6111 39.9109L39.6907 39.8268L39.7661 39.7428L39.8331 39.6618L39.8987 39.5838L39.9615 39.5089L40.0173 39.4338L40.0676 39.3648L40.115 39.2928L40.5784 40.9971H43.5026V29.0042H39.8484Z" fill="#FFFF01"/>
<path fill-rule="evenodd" clip-rule="evenodd" d="M11.1046 24.9927V28.9985H9.42282V31.7321H11.1046V36.6104L11.1075 36.7604L11.1105 36.9074L11.1135 37.0544L11.1194 37.1955L11.1283 37.3365L11.1402 37.4745L11.1521 37.6095L11.1669 37.7446L11.1816 37.8735L11.1995 38.0026L11.2203 38.1287L11.244 38.2516L11.2678 38.3717L11.2944 38.4917L11.3211 38.6056L11.3508 38.7197L11.3833 38.8307L11.4189 38.9387L11.4545 39.0438L11.4932 39.1457L11.5346 39.2478L11.5762 39.3438L11.6206 39.4398L11.6681 39.5298L11.7155 39.6198L11.7661 39.7068L11.8194 39.7908L11.8758 39.8749L11.9322 39.9529L11.9915 40.0279L12.0537 40.1029L12.116 40.1719L12.1753 40.2319L12.2346 40.292L12.2969 40.349L12.3593 40.4059L12.4274 40.46L12.4956 40.5139L12.5698 40.568L12.644 40.619L12.7181 40.6699L12.7982 40.7179L12.8782 40.763L12.9613 40.811L13.0474 40.8531L13.1334 40.895L13.2254 40.9371L13.3143 40.9731L13.4092 41.0121L13.5041 41.0451L13.6019 41.078L13.6999 41.1081L13.8007 41.138L13.9045 41.162L14.0083 41.186L14.1157 41.2071L14.2218 41.2281L14.3321 41.246L14.4409 41.258L14.554 41.27L14.6671 41.282L14.7829 41.2881L14.8988 41.2911L15.0174 41.294L15.2128 41.2911L15.3929 41.2851L15.5632 41.2761L15.7167 41.2641L15.8619 41.2491L15.9958 41.2311L16.1229 41.21L16.2387 41.186L16.3518 41.162L16.4551 41.135L16.5528 41.1051L16.6505 41.075L16.8347 41.0091L17.0162 40.9401V38.1527L16.9687 38.1706L16.9059 38.1887L16.8319 38.2066L16.7398 38.2216L16.6365 38.2367L16.5207 38.2456L16.3964 38.2546L16.2624 38.2576L16.1438 38.2546L16.0335 38.2487L15.9275 38.2367L15.827 38.2186L15.732 38.1976L15.6427 38.1736L15.5562 38.1436L15.4766 38.1076L15.4026 38.0686L15.3315 38.0266L15.2631 37.9756L15.203 37.9246L15.1444 37.8676L15.0914 37.8076L15.0411 37.7415L14.9965 37.6695L14.9546 37.5975L14.9155 37.5166L14.8806 37.4355L14.8471 37.3485L14.8206 37.2555L14.7941 37.1624L14.7731 37.0605L14.7522 36.9584L14.7382 36.8504L14.7229 36.7364L14.7117 36.6224L14.702 36.5023L14.6964 36.3764L14.6908 36.2503L14.688 36.1183V35.9833V31.7321H16.9771V28.9985H14.688V24.9927H11.1046Z" fill="#FFFF01"/>
<path fill-rule="evenodd" clip-rule="evenodd" d="M38.4875 24.9899L36.2627 28.2247H38.8365L41.9728 24.9899H38.4875Z" fill="#FFFF01"/>
</svg>
